<?xml version="1.0" standalone="no"?>
<!DOCTYPE svg PUBLIC "-//W3C//DTD SVG 1.1//EN" "http://www.w3.org/Graphics/SVG/1.1/DTD/svg11.dtd" >
<!--
2015-11-29: Created.
-->
<svg xmlns="http://www.w3.org/2000/svg">
<metadata>
Created by FontForge 20120731 at Sun Nov 29 14:44:58 2015
 By raphael,,,
Created by raphael,,, with FontForge 2.0 (http://fontforge.sf.net)
</metadata>
<defs>
<font id="elements-icons" horiz-adv-x="512" >
  <font-face 
    font-family="elements-icons"
    font-weight="500"
    font-stretch="normal"
    units-per-em="512"
    panose-1="2 0 6 3 0 0 0 0 0 0"
    ascent="448"
    descent="-64"
    bbox="-0.0947266 -64.0684 512.505 448.024"
    underline-thickness="25.6"
    underline-position="-51.2"
    unicode-range="U+0020-F136"
  />
    <missing-glyph />
    <glyph glyph-name="space" unicode=" " horiz-adv-x="200" 
 />
    <glyph glyph-name="uniF133" unicode="&#xf133;" 
d="M502.061 147.21c4.35938 -12.0039 4.78125 -20.8486 1.31348 -27.8467c-5.69629 -11.4609 -20.3779 -16.0371 -42.5684 -22.9209c-8.91602 -2.79102 -19.0303 -5.92383 -30.3154 -10.0605c-23.9941 -8.82031 -104.736 -31.6523 -125.993 -34.2939
c-3.83008 -0.475586 -8.66309 -1.16211 -14.2178 -1.96387c-21.2402 -3.00098 -53.1924 -7.56055 -81.6318 -7.56055c-8.6875 0 -16.6533 0.441406 -23.625 1.28516c-6.78711 -9.68164 -7.06934 -17.2861 -7.35059 -25.332
c-0.791016 -20.4844 -1.49414 -39.8223 -83.4355 -81.2979l-1.3125 -0.422852c-4.32227 -0.56543 -8.2666 -0.792969 -12.0244 -0.792969c-21.3105 0 -38.4238 7.78223 -50.833 23.1064c-40.6406 50.1562 -17.042 165.369 -15.9941 170.253
c8.18652 32.9023 49.8203 59.6172 92.8018 59.6172c22.3574 0 42.9209 -7.05957 59.6084 -20.4482c6.7168 14.7793 25.5537 45.375 69.4336 55.9541c6.74316 1.62988 13.5127 2.44727 20.1133 2.44727c19.9551 0 38.6963 -7.24414 57.0645 -22.127
c-11.0117 26.6602 -17.6113 57.3037 -23.0176 82.3096c-5.40527 25.0059 -10.0078 46.3252 -16.7324 56.3418c-1.4873 1.80371 -5.6416 4.11816 -16.5566 4.11816c-9.43652 0 -21.0117 -1.74316 -32.1904 -3.41406c-11.1436 -1.66504 -21.5215 -3.20605 -30.0244 -3.20605
c-6.85645 0 -16.416 0.879883 -20.0068 8.40625c-3.37109 7.00586 -3.9873 11.6367 -2.06836 15.0518c0.518555 0.916992 1.17871 1.7002 2.00684 2.31738c-8.55664 9.2666 -14.9463 25.0498 -15.6689 29.248c-2.31543 13.2822 4.48145 24.6201 9.43652 32.9111
c1.71582 2.87988 3.10547 5.21191 3.63574 6.77832c2.09375 6.21484 6.07227 9.24219 12.2148 9.24219c1.4707 0 3.08887 -0.158203 4.78906 -0.360352c1.49609 -0.166992 3.08887 -0.307617 4.71777 -0.307617c2.64844 0 4.79004 0.359375 6.52246 1.08301
c4.30469 1.76855 9.36719 2.6748 15.0518 2.6748c23.4502 0 55.7627 -15.167 81.7109 -27.3672c10.1055 -4.78027 16.3271 -11.8838 18.5547 -21.0986c0.625 -0.176758 1.27539 -0.415039 1.94336 -0.642578c33.8291 -13.3711 121.015 -98.7363 152.983 -149.762
c14.7178 -23.5107 18.248 -46.502 21.6191 -68.7363c1.24219 -8.13281 2.50879 -16.5576 4.41797 -24.5322c0.732422 -0.818359 1.24316 -1.30273 1.61328 -1.66309c1.97168 -1.86621 2.44727 -2.84082 4.01465 -6.98828z" />
    <glyph glyph-name="uniF10A" unicode="&#xf10a;" 
d="M473.439 391.906l0.125977 -0.205078c0.578125 -0.4375 1.13965 -1.37598 1.25098 -2.09375c0.00976562 -0.0908203 0.0166016 -0.238281 0.0166016 -0.330078c0 -0.605469 -0.297852 -1.48633 -0.665039 -1.96777l-71.2266 -92.7314
c-0.449219 -0.570312 -1.39746 -1.11523 -2.11621 -1.2168c-0.0898438 -0.00878906 -0.235352 -0.0166016 -0.325195 -0.0166016c-0.625977 0 -1.53613 0.313477 -2.03027 0.699219c-25.9414 20.0254 -57.0488 30.6064 -90 30.6064
c-81.4668 0 -147.801 -66.2197 -147.801 -147.687v-0.327148c0 -15.1787 4.43457 -38.9893 9.89941 -53.1494c0.118164 -0.302734 0.214844 -0.8125 0.214844 -1.13867c0 -1.19824 -0.912109 -2.50781 -2.03516 -2.92383c0 0 -106.316 -41.5752 -108.968 -42.4053
c-1.05859 -0.352539 -3.08398 -0.831055 -4.07324 1.78613c-10.1494 26.0586 -18.3877 69.9043 -18.3877 97.8691c0 0.0898438 0.000976562 0.234375 0.000976562 0.323242c0 149.439 121.608 271.002 271.002 271.002l0.780273 0.000976562
c50.6416 0 124.265 -25.1299 164.337 -56.0947zM280.833 307.288l0.181641 -0.182617c0.577148 -0.523438 1.0459 -1.58008 1.0459 -2.35938c0 -0.102539 -0.00976562 -0.268555 -0.0214844 -0.371094c-1.13867 -9.53516 -0.671875 -20.0029 1.42188 -31.1533
c0.0292969 -0.15625 0.0527344 -0.413086 0.0527344 -0.573242c0 -1.20117 -0.911133 -2.52441 -2.03223 -2.95312c-13.4473 -5.1416 -33.1895 -16.9678 -44.0674 -26.3975c-0.479492 -0.37793 -1.36328 -0.685547 -1.97461 -0.685547l-0.130859 0.00292969h-0.0390625
c-0.541992 0 -1.33984 0.254883 -1.78125 0.568359c-9.33008 6.25879 -18.7734 10.4678 -28.3311 12.6299c-1.1377 0.227539 -1.93457 1.02441 -2.38965 2.04785c-0.105469 0.291992 -0.191406 0.779297 -0.191406 1.08887c0 0.614258 0.310547 1.50293 0.692383 1.9834
c16.1445 20.1201 49.6338 41.2129 74.7539 47.082c0.194336 0.0458984 0.513672 0.0830078 0.712891 0.0830078c0.665039 0 1.60449 -0.363281 2.09766 -0.810547zM337.973 266.907l-0.0791016 0.181641c73.1943 0 132.896 -53.749 133.009 -119.742l0.0576172 -38.9697
c-0.00683594 -0.71582 -0.414062 -1.71484 -0.911133 -2.22949c-0.512695 -0.50293 -1.51172 -0.911133 -2.22949 -0.911133h-0.0224609h-108.661c1.60449 -8.77148 27.8311 -26.374 42.3945 -36.1592c9.96777 -6.71289 17.875 -11.9697 21.3457 -15.5879
c5.54102 -5.87109 7.93066 -12.2314 7.02051 -18.4326c-1.25195 -7.91895 -7.85156 -15.0869 -19.457 -21.459c-3.37891 -1.88867 -5.17676 -4.0498 -5.46094 -6.78125c-1.1377 -11.2637 21.5039 -30.6064 36.5234 -43.3496
c15.7354 -13.3125 21.8799 -19.002 20.2529 -24.0078c-1.1377 -3.52734 -7.16797 -3.52734 -7.16797 -3.52734c-74.7656 0 -114.668 22.3008 -118.616 66.2197c-5.95117 67.0625 -28.8203 91.3887 -42.7021 91.3887c-3.2998 0 -6.25781 -1.35352 -8.5332 -3.90234
c-3.81152 -4.20996 -5.50684 -11.4014 -4.66504 -19.7637c3.36816 -32.7686 -3.57324 -59.7119 -20.0254 -77.9395c-13.4258 -14.9512 -33.793 -23.8945 -54.2734 -23.8945c-7.28223 0 -14.1084 1.16113 -19.7979 3.2998c-4.55078 1.72949 -7.16797 4.32422 -7.96484 7.7373
c-1.82031 7.81641 7.05469 17.2949 18.4326 29.2871c16.498 17.5225 37.0928 39.3682 26.3975 59.2002c-11.4014 20.9355 -17.9209 49.8018 -17.9209 79.2705c0 66.2197 59.7012 120.072 133.055 120.072zM284.303 120.403h0.0341797
c9.0127 0 16.3271 7.31543 16.3271 16.3281s-7.31445 16.3271 -16.3271 16.3271c-8.98828 0 -16.3838 -7.32715 -16.3838 -16.3271s7.36133 -16.3281 16.3496 -16.3281zM430.317 123.658l0.0341797 0.193359c7.62305 0 13.6533 5.80273 13.6533 12.9707
s-6.13281 12.9707 -13.6992 12.9707h-96.1445c-7.56641 0 -13.7334 -5.88184 -13.7334 -13.085c0 -7.20215 6.16699 -13.0498 13.7451 -13.0498h96.1445z" />
    <glyph glyph-name="uniF129" unicode="&#xf129;" 
d="M475.572 374.921l0.0947266 -0.0957031c20.0928 0 36.4287 -17.3545 36.4287 -39.708s-16.3037 -40.4404 -36.4287 -40.4404c-4.04395 0 -7.70605 0.891602 -11.3672 2.16602c-48.8467 -48.9746 -71.9971 -94.3184 -66.9971 -131.447
c6.08203 -44.707 51.2031 -67.5391 51.6807 -67.6982c7.25977 -3.59766 11.2725 -12.291 9.61621 -20.8887c-0.381836 -1.87891 -1.33691 -6.08203 -1.33691 -6.52734c0 -33.8174 -86.6123 -61.2021 -193.478 -61.2021c-106.864 0 -193.477 27.3535 -193.477 61.2021
c0 0.859375 0.191406 4.2666 0 5.22168c-0.210938 0.992188 -0.382812 2.62012 -0.382812 3.63477c0 5.7373 4.09473 12.6113 9.13965 15.3438c0.860352 0.381836 41.5234 21.207 46.9365 61.584c4.68066 34.3262 -17.1953 76.3594 -63.0488 121.735
c-6.65527 -7.83398 -16.0166 -12.8008 -26.5254 -12.8008c-20.124 0 -36.4277 18.0547 -36.4277 40.3447s16.4307 39.8027 36.5234 39.835c18.6279 0 33.8496 -14.9658 35.9824 -35.0273c87.4082 -9.04297 142.592 -48.4004 177.301 -92.0254
c35.1221 50.9482 93.3633 100.178 189.655 114.634c0 0.764648 -0.318359 1.56055 -0.318359 2.35645c0 22.3535 16.3672 39.8037 36.4287 39.8037zM364.218 159.505h-0.0957031c-5.60449 40.3447 9.64844 83.5547 45.4395 129.09
c-70.4355 -19.1689 -113.169 -60.0869 -139.152 -100.846c13.3613 -22.9092 28.626 -62.5674 34.0713 -88.5225h86.9629c-12.5146 14.9971 -23.7227 34.9629 -27.2256 60.2783z" />
    <glyph glyph-name="uniF122" unicode="&#xf122;" 
d="M364.912 305.223l-0.00585938 0.00292969c46.7852 -77.2197 70.5029 -141.08 70.5029 -189.809c0 -98.9316 -80.4854 -179.416 -179.414 -179.416s-179.412 80.4873 -179.412 179.416c0 48.6963 23.7197 112.548 70.5068 189.776
c36.3027 59.9268 76.6826 111.805 97.5176 137.395c2.43457 2.98828 7.53711 5.41309 11.3916 5.41309c3.85352 0 8.95605 -2.4248 11.3906 -5.41309c20.8408 -25.5811 61.2197 -77.4414 97.5225 -137.365zM280.616 2.08496l0.0253906 -0.00390625
c3.49902 0.894531 5.81738 3.9668 5.5293 7.33203c-0.288086 3.35938 -3.09863 6.05469 -6.70508 6.42871c-72.4082 7.47949 -127.009 64.2227 -127.009 131.984c0.00878906 3.37891 0.318359 8.84473 0.689453 12.2021c0.37793 3.51562 -2.10645 6.74805 -5.81934 7.54688
c-3.71289 0.800781 -7.47949 -1.08887 -8.80176 -4.40137c-7.82617 -19.6035 -11.793 -37.167 -11.793 -52.1992c0 -62.2666 54.5332 -112.926 121.554 -112.926h0.118164c9.03027 0 23.4609 1.80762 32.2119 4.03613z" />
    <glyph glyph-name="uniF121" unicode="&#xf121;" 
d="M372.569 241.98l-0.0078125 0.00195312c35.4424 -45.5605 66.6523 -108.836 55.6924 -168.732c-20.248 -111.365 -135.829 -162.829 -237.913 -124.864c-226.103 83.5234 -46.4014 374.587 59.9014 489.325c0 5.90527 4.21582 9.28027 9.27832 9.28027
c4.21777 2.53027 8.43652 0 9.28027 -4.21875c1.68848 -1.6875 2.5293 -3.37402 2.5293 -5.90527c4.21777 -86.0537 51.4648 -129.924 101.239 -194.887zM191.174 2.38184c13.5 -8.43848 31.2168 -16.873 47.2461 -11.8115c15.1865 5.0625 51.4639 24.4668 42.1836 47.2451
c-15.1855 37.1201 -70.0244 54.8359 -97.0215 84.3662c-11.8115 13.498 -20.248 32.0596 -24.4658 50.6172c-7.59277 -21.0889 -14.3438 -42.1826 -19.4033 -64.1152c-0.844727 -12.6553 0.84082 -25.3105 4.21875 -37.9648
c7.5918 -25.3125 22.7773 -53.9941 47.2422 -68.3369z" />
    <glyph glyph-name="uniF114" unicode="&#xf114;" 
d="M488.457 81.8652c15.1055 -10.8857 23.543 -23.0215 23.543 -35.835c0 -47.1367 -114.588 -85.3154 -256 -85.3154s-256 38.1787 -256 85.3154c0 12.7607 8.4375 24.8975 23.543 35.7832c2.34375 1.66602 5.41699 -0.677734 4.42676 -3.33398
c-1.19824 -3.125 -1.77051 -6.30176 -1.77051 -9.53125c0 -42.2939 102.868 -76.5654 229.801 -76.5654s229.801 34.2715 229.801 76.6172c0 3.22949 -0.625 6.40625 -1.77051 9.53223c-0.990234 2.65625 2.13574 5 4.42676 3.33301zM422.726 96.8662
c-1.71875 2.44727 0.9375 5.57324 3.54199 4.27051c18.0215 -8.59375 28.3867 -18.6465 28.3867 -29.376c0 -31.5117 -88.9619 -57.0332 -198.706 -57.0332s-198.706 25.5215 -198.706 57.0332c0 10.7295 10.3643 20.7822 28.3867 29.376
c2.70801 1.30273 5.36426 -1.82324 3.64551 -4.27051c-2.23926 -3.17773 -3.4375 -6.45898 -3.4375 -9.79199c0 -26.9805 76.2012 -48.8564 170.163 -48.8564s170.163 21.876 170.163 48.8564c0 3.33301 -1.19824 6.61426 -3.4375 9.79199zM135.162 98.7412
c13.9062 7.65625 100.056 35.2617 117.869 184.33c-11.5098 1.45801 -20.418 11.251 -20.418 23.1777c0 12.918 10.4697 23.3867 23.3867 23.3867s23.3867 -10.4688 23.3867 -23.3867c0 -11.875 -8.85449 -21.6152 -20.2617 -23.1777
c18.0742 -148.443 103.077 -176.726 117.661 -184.383c1.71875 -0.884766 2.55176 -2.91602 1.92676 -4.73926c-6.14551 -17.8652 -58.7002 -31.876 -122.713 -31.876c-64.0654 0 -116.672 14.0107 -122.713 31.9805c-0.573242 1.77051 0.208008 3.75 1.875 4.6875z
M289.855 389.378c0 -18.6992 -15.1572 -33.8555 -33.9072 -33.9082c-18.751 0 -33.9082 15.1572 -33.9082 33.9082s15.209 33.9072 33.9082 33.9072c18.75 0 33.9072 -15.209 33.9072 -33.9072zM245.322 387.815c5.625 0 10.3135 4.6875 10.3135 10.3125
s-4.68848 10.3135 -10.3135 10.3135s-10.3125 -4.68848 -10.3125 -10.3135s4.6875 -10.3125 10.3125 -10.3125z" />
    <glyph glyph-name="uniF126" unicode="&#xf126;" 
d="M456.528 398.448h-0.224609c25.1201 -32.0479 -14.0801 -107.76 -133.279 -181.681c-101.761 -63.0078 -176.641 -124.319 -116.641 -148.64c142.72 -57.9521 66.7197 -132.128 66.7197 -132.128s0 49.5684 -49.9199 66.0801
c-84.4951 27.9043 -116.655 49.5518 -149.983 82.5596c-25.2002 24.9922 -52.3359 103.841 33.3594 181.681c42.6084 38.7197 -81.9678 79.6475 -50.0312 132.128c16.7041 27.3594 89.5195 49.5518 200 49.5518c110.479 0 181.92 -26.3516 200 -49.5518zM256.256 335.488
c97.2002 0 176 21.4873 176 48c0 26.5117 -78.7998 48 -176 48s-176 -21.4883 -176 -48c0 -26.5127 78.7998 -48 176 -48z" />
    <glyph glyph-name="uniF12E" unicode="&#xf12e;" 
d="M186.432 260.943l-77.9395 80.4844l-0.119141 57.6533l62.4971 0.144531l74.3408 -77.0811l-25.9746 -27.0469l-78.0215 80.6152l-6.00488 0.138672l-0.108398 -6.05664l78.2246 -80.8408zM275.315 230.71l77.957 -80.4844
c-0.336914 -22.6904 -3.80469 -39.7363 -11.0186 -50.2051l-73.8535 76.2676l26.875 27.9834l44.1426 -45.627l6.11914 5.93164l-44.3604 45.8418l25.834 26.9082l-2.04492 1.78711c-10.4482 -6.91699 -27.3242 -9.46387 -49.6504 -8.40332zM413.571 211.853
c70.5693 -32.0312 33.0781 -88.6475 -22.6729 -100.525c-22.0342 -72.2451 -81.0488 -79.1719 -101.234 -19.3789c51.9609 -32.3838 73.6348 -11.2432 74.4795 47.0303c56.1904 -2.66602 77.8564 17.4766 49.4277 72.874zM482.72 60.2725h0.0351562
c25.7432 -26.5996 36.5439 -57.8994 24.1299 -69.9131c-12.4121 -12.0166 -43.3457 -0.188477 -69.085 26.4121l-13.001 13.4238c-25.7441 26.5986 -36.5459 57.9004 -24.1387 69.9102c12.4062 12.0186 43.3438 0.19043 69.0684 -26.4102zM109.135 157.682
l-0.0361328 -0.00195312l233.474 241.566l61.0586 0.0390625l-0.119141 -58.8066l-233.726 -241.405c-7.19824 10.459 -10.6826 27.5146 -11.0098 50.2012c-22.3252 -1.05664 -39.1973 1.49023 -49.6416 8.40723zM370.787 374.77l-0.00195312 -0.00390625l-204.322 -211.146
l6.11914 -5.92578l204.325 211.148l-0.115234 6.06055zM147.86 138.033c0.838867 -58.2715 22.5146 -79.418 74.4756 -47.0342c-20.1797 -59.7891 -79.1963 -52.8643 -101.23 19.3867c-55.7549 11.8721 -93.248 68.4883 -22.6729 100.521
c-28.4307 -55.4014 -6.7666 -75.542 49.4277 -72.874zM42.2695 72.75l0.0253906 -0.0214844c25.7256 26.5967 56.6621 38.4287 69.0693 26.418c12.4062 -12.0098 1.60547 -43.3037 -24.1396 -69.9004l-12.9912 -13.4238
c-25.7402 -26.5986 -56.6699 -38.4248 -69.084 -26.4102c-12.417 12.0098 -1.61133 43.3115 24.1289 69.9131z" />
    <glyph glyph-name="uniF110" unicode="&#xf110;" 
d="M468.264 362.246l-0.0107422 -0.00585938c2.85742 -128.71 -25.1025 -234.066 -84.3008 -315.872c-32.1289 -44.3877 -72.3789 -80.3193 -120.681 -108.377c-4.3877 -2.55469 -10.2861 -2.76367 -14.0498 0c-48.667 27.5996 -88.9727 63.7881 -121.175 108.384
c-59.1152 81.8594 -87.3047 187.167 -84.2979 315.871c0.756836 6.77637 5.5127 12.6104 12.2959 13.5459c31.3555 4.33691 62.5098 11.9355 93.0811 23.0869c30.6543 11.1807 64.0586 26.6963 100.107 47.165c4.60352 2.61816 8.93652 2.60059 13.5469 0
c36.292 -20.4785 69.9395 -36.0283 100.357 -47.165c30.5576 -11.1924 61.7295 -18.7451 93.335 -23.0869c6.78125 -0.924805 11.6357 -6.76953 11.791 -13.5459zM361.382 62.1797l0.000976562 0.0107422c53.6152 74.0723 80.0342 170.104 79.0342 287.771
c-29.6055 4.76855 -59.2119 12.7959 -88.5674 23.5859c-29.3535 10.7822 -61.2158 25.5908 -95.8398 44.4014c-34.625 -18.8086 -66.7393 -33.6191 -96.0918 -44.4004c-29.3525 -10.79 -58.7109 -18.8164 -88.3145 -23.5869
c-1.00098 -116.917 25.2529 -212.817 79.0332 -287.776c27.7637 -38.7012 62.9707 -70.751 105.373 -96.5938c42.4014 25.8398 77.4424 58.0088 105.372 96.5879z" />
    <glyph glyph-name="uniF113" unicode="&#xf113;" 
d="M493.728 340.174c1.14746 -78.3203 -11.4277 -344.273 -231.776 -403.391c-3.91406 -1.04395 -8.03613 -1.04395 -11.9492 0c-220.349 59.1699 -232.924 325.07 -231.724 403.391c0.208008 12.001 9.3916 21.9141 21.3408 23.0107
c99.2949 9.28711 180.328 62.3525 206.991 81.7627c5.58301 4.07031 13.1494 4.07031 18.7324 0c26.7148 -19.4102 107.748 -72.4756 207.043 -81.7627c11.9492 -1.09668 21.1846 -11.0098 21.3418 -23.0107z" />
    <glyph glyph-name="uniF12D" unicode="&#xf12d;" 
d="M308.417 391.393c5.05469 3.94824 9.24023 1.92676 9.29883 -4.48828l0.65332 -75.3701c0.0527344 -6.41602 4.44922 -14.6016 9.7666 -18.1934l62.4609 -42.1865c5.31836 -3.59082 4.68848 -8.19434 -1.3916 -10.2305l-71.4766 -23.915
c-6.08594 -2.03711 -12.5166 -8.74805 -14.2832 -14.9131l-20.8213 -72.4414c-1.77539 -6.16406 -6.3457 -6.98926 -10.1621 -1.83105l-44.8359 60.585c-3.81445 5.15918 -12.1836 9.2002 -18.5957 8.97852l-75.3291 -2.58594
c-6.41113 -0.21875 -8.6084 3.87598 -4.88379 9.09766l43.7686 61.3633c3.72461 5.22363 4.98145 14.4297 2.79004 20.46l-25.7324 70.8408c-2.19336 6.03027 1.02246 9.38379 7.14062 7.45703l71.8838 -22.6641c6.11914 -1.93066 15.2656 -0.280273 20.3193 3.66699z
M327.419 442.723c1.40625 2.91309 5.17188 5.27734 8.40625 5.27734c5.15234 0 9.33301 -4.18164 9.33301 -9.33301c0 -1.17871 -0.415039 -2.99609 -0.926758 -4.05664l-9.12988 -18.9082c-1.40527 -2.91211 -5.1709 -5.27539 -8.4043 -5.27539
c-5.15137 0 -9.33203 4.18066 -9.33203 9.33203c0 1.17773 0.416016 2.99512 0.927734 4.05566zM109.529 251.414c-0.558594 -0.125977 -1.47656 -0.227539 -2.0498 -0.227539c-5.15234 0 -9.33398 4.18164 -9.33398 9.33398c0 3.97754 3.12305 8.02246 6.9707 9.0293
l20.4014 4.96094c0.601562 0.146484 1.59082 0.265625 2.20898 0.265625c4.04688 0 8.1084 -3.19141 9.06445 -7.12402c0.146484 -0.600586 0.265625 -1.58984 0.265625 -2.20801c0 -4.04785 -3.19336 -8.11035 -7.12695 -9.06738zM174.959 413.904
c-0.533203 1.08008 -0.966797 2.93262 -0.966797 4.13672c0 5.15234 4.18164 9.33398 9.33398 9.33398c3.06738 0 6.74316 -2.18848 8.20508 -4.88477l9.6582 -18.6445c2.36816 -4.5752 0.583984 -10.207 -3.99121 -12.5742
c-1.11426 -0.578125 -3.03809 -1.04688 -4.29297 -1.04688c-3.13281 0 -6.84473 2.25781 -8.28613 5.03906l-9.6582 18.6396zM333.931 143.092l-8.80566 19.0674c-0.474609 1.02734 -0.859375 2.7793 -0.859375 3.91016c0 3.29492 2.42676 7.08984 5.41797 8.47168
c1.02734 0.474609 2.78125 0.860352 3.91406 0.860352c3.29395 0 7.08691 -2.42676 8.46777 -5.41797l8.80859 -19.0654c2.16406 -4.67773 0.119141 -10.2207 -4.55859 -12.3828c-1.02832 -0.475586 -2.78125 -0.861328 -3.91406 -0.861328
c-3.29395 0 -7.08984 2.42773 -8.4707 5.41797zM420.457 295.403l-20.6055 -4.03516c-5.05957 -0.992188 -9.95996 2.30664 -10.9551 7.36328c-0.0957031 0.489258 -0.173828 1.29297 -0.173828 1.79199c0 4.24023 3.37793 8.3418 7.53906 9.15625l20.6055 4.04004
c0.490234 0.0957031 1.29297 0.173828 1.79297 0.173828c4.24023 0 8.34277 -3.37695 9.15723 -7.53711c0.0966797 -0.491211 0.173828 -1.29492 0.173828 -1.79492c0 -4.23828 -3.375 -8.34082 -7.53418 -9.1582zM116.046 -58.7305
c-2.22949 -4.62207 -7.83789 -6.57812 -12.46 -4.34766l-14.3115 6.9082c-4.61914 2.22852 -6.5791 7.83887 -4.34668 12.46l104.817 217.148c2.23242 4.62207 7.83789 6.5791 12.4619 4.34863l14.3125 -6.9082c4.61914 -2.23047 6.57812 -7.83789 4.34668 -12.4609z" />
    <glyph glyph-name="uniF102" unicode="&#xf102;" 
d="M413.382 114.893l-0.0214844 0.0527344c2.4502 -24.6768 0.106445 -49.5547 -6.71875 -71.9043c-6.10059 -20.0684 -16.085 -39.0469 -28.8682 -54.8672c-10.5283 -13.042 -22.751 -24.0049 -36.2422 -32.5654c-10.4238 -6.66699 -21.3389 -11.9043 -32.3965 -15.5029
c-3.92969 -1.33594 -10.4238 -3.06641 -14.498 -3.8623c-0.553711 -0.108398 -1.46191 -0.196289 -2.02734 -0.196289c-5.84082 0 -10.582 4.74121 -10.582 10.582c0 0.652344 0.117188 1.69824 0.260742 2.33398c0.925781 4.10547 1.94141 8.88379 2.97363 14.0527
c1.3916 7.54492 3.15332 17.8516 4.12695 29.1533c0.967773 12.4707 0.962891 23.2275 -0.0214844 32.8037c-1.07422 10.8945 -3.3916 21.2324 -6.91016 30.7666c-3.12109 8.38086 -7.31152 16.7783 -13.1738 26.3701c-4.6875 7.64062 -12.874 19.6465 -18.2754 26.7988
c-6.16895 8.20117 -13.6289 17.5127 -24.2109 30.1582l-0.15918 0.15918c-0.962891 1.00488 -1.82031 2.06348 -2.87793 3.28027c-1.1377 1.37598 -2.24902 2.69824 -3.80957 4.44434l-2.22266 2.54004c-0.0527344 0.105469 -5.66113 6.61328 -7.67188 9.09961
c-6.77246 7.99023 -13.6504 17.5137 -20.793 28.8887c-13.5293 21.8789 -23.3281 45.7725 -28.3965 69.1797c-5.32812 24.1689 -5.82031 50.2158 -1.37598 73.3008c3.90527 20.9785 12.0635 41.1846 23.5977 58.3594c9.41797 14.0635 20.7402 26.1738 33.6504 35.9785
c10.127 7.67188 20.709 13.7559 31.46 18.1475c5.13281 2.11621 10.3018 3.8623 15.3438 5.18555c0.725586 0.189453 1.92383 0.342773 2.67383 0.342773c5.84082 0 10.582 -4.74023 10.582 -10.582c0 -0.373047 -0.0390625 -0.977539 -0.0869141 -1.34863
c-0.512695 -4.19043 -1.22363 -11.0049 -1.58691 -15.2109c-0.6875 -8.57129 -1.32227 -18.8359 -1.00488 -29.5234c0.317383 -12.0371 1.53418 -22.9365 3.59766 -32.4336c2.16895 -10.4766 5.6084 -20.1846 10.2119 -28.8887
c3.91504 -7.66113 8.67676 -15 15.4492 -23.8623c5.31738 -6.89746 14.4199 -17.6973 20.3174 -24.1055l0.438477 -0.513672c1.11133 -1.40137 2.36035 -2.64453 3.46094 -3.75586c0.648438 -0.650391 1.68262 -1.72363 2.30664 -2.39746
c1.37012 -1.63477 3.72168 -4.1709 5.24902 -5.66113l1.5498 -1.53418c0.969727 -0.972656 2.48242 -2.60742 3.37598 -3.65039l5.18457 -5.66211c2.24902 -2.32715 6.59766 -7.35352 10.8838 -12.5918c15.2588 -18.624 27.8828 -38.7295 37.5127 -59.7881
c10.6084 -23.1211 17.4287 -47.8672 19.7246 -71.5703zM205.924 50.0889l0.0263672 -0.0263672c4.8252 -10.5293 7.93652 -21.8516 8.99512 -32.6455c1.08984 -11.1006 0 -22.7666 -3.06934 -32.8359c-2.30273 -7.6123 -8.20508 -18.8311 -13.1748 -25.042
c-3.90039 -4.8623 -11.3369 -11.5225 -16.5977 -14.8672c-2.83105 -1.82129 -7.65625 -4.33398 -10.7715 -5.6084c-1.05469 -0.426758 -2.83398 -0.773438 -3.9707 -0.773438c-5.8418 0 -10.582 4.74121 -10.582 10.582c0 0.494141 0.0673828 1.29102 0.150391 1.77832
c0.52832 2.98145 1.17969 7.84766 1.45508 10.8623c0.439453 5.62402 0.439453 10.5293 0 14.8838c-0.492188 5 -1.55566 9.74023 -3.15918 14.1006c-1.41797 3.83008 -3.33301 7.65527 -5.97852 12.0098c-2.13867 3.49316 -5.88379 8.97559 -8.35938 12.2383
c-3.58789 4.79395 -7.82031 9.89453 -11.1006 13.7881l-0.15918 0.169922l-1.16406 1.375c-0.478516 0.583984 -1.27539 1.51562 -1.77734 2.0791l-0.952148 1.05859l0.0263672 0.0214844c-0.84668 0.983398 -2.77832 3.20117 -3.65137 4.28516
c-3.00488 3.54492 -6.12598 7.89453 -9.39648 13.0791c-6.19531 10.0371 -10.6719 20.9521 -12.9785 31.6406c-2.43359 11.0205 -2.65039 22.9258 -0.597656 33.4912c1.46777 7.95508 6.29297 19.8779 10.7725 26.6133c3.47461 5.23828 10.3486 12.5859 15.3438 16.4023
c3.67188 2.7832 7.53418 5.13184 11.4492 7c1.19043 0.566406 3.22656 1.02539 4.54492 1.02539c5.84082 0 10.582 -4.74023 10.582 -10.582c0 -0.206055 -0.0117188 -0.540039 -0.0263672 -0.745117c-0.201172 -2.54199 -0.364258 -6.6748 -0.364258 -9.22559
c0 -0.680664 0.0107422 -1.78613 0.0253906 -2.46777c0.0673828 -4.12012 0.788086 -10.7432 1.6084 -14.7822c0.772461 -3.82617 2.8584 -9.74219 4.65625 -13.2061c2.27539 -4.3916 4.86816 -8 7.08984 -10.9521c2.38477 -3.09473 6.46191 -7.94531 9.10059 -10.8262
c0.105469 -0.113281 0.271484 -0.302734 0.370117 -0.422852c0.423828 -0.582031 0.952148 -1.11133 1.48145 -1.69336l0.899414 -0.952148c0.669922 -0.794922 1.82031 -2.02734 2.56641 -2.75098l0.666992 -0.688477c0.451172 -0.46875 1.16211 -1.25098 1.58691 -1.74512
l2.43359 -2.66699c1.02637 -1.07422 3.14258 -3.5293 4.88867 -5.67773c5.69824 -6.92383 13.3643 -19.1543 17.1113 -27.3008z" />
    <glyph glyph-name="uniF10F" unicode="&#xf10f;" 
d="M511.909 210.619l0.514648 -0.0605469c3.08496 -37.7227 -82.8281 -93.5967 -67.7021 -112.745c15.125 -19.1494 -82.5859 -81.0127 -60.502 -108.904c19.6631 -24.624 -86.2158 -56.8115 -83.7959 -39.4473c2.41992 17.3037 -143.391 11.2832 -172.432 39.5078
c-25.2598 24.8057 -74.9922 95.5938 -76.6865 74.7197c-1.69434 -20.873 -48.9766 77.1406 -51.3057 147.021c-0.907227 25.5322 90.7529 136.735 80.498 147.656c-16.9404 17.0312 76.8379 45.376 76.8379 45.376s83.4932 -22.0527 75.9307 5.56641
c-7.26074 27.5283 31.7637 17.2432 52.334 20.873c53.5449 9.37793 102.854 14.8232 98.3164 2.4209c-2.99512 -8.4707 7.95605 -25.4111 24.5938 -47.4941c11.1631 -14.8232 70.5762 -93.1738 82.6768 -115.257c11.2227 -20.4502 19.1182 -40.6279 20.7217 -59.2324z
M89.7246 131.876c8.09863 0 14.6719 6.57324 14.6719 14.6719s-6.57324 14.6719 -14.6719 14.6719s-14.6719 -6.57324 -14.6719 -14.6719s6.57324 -14.6719 14.6719 -14.6719zM208.158 158.891c13.001 0.457031 23.5527 11.3877 23.5527 24.3975
c0 13.0088 -10.5518 23.9395 -23.5527 24.3975c-0.237305 0.0078125 -0.62207 0.0146484 -0.859375 0.0146484c-13.4756 0 -24.4131 -10.9365 -24.4131 -24.4121c0 -13.4766 10.9375 -24.4131 24.4131 -24.4131c0.237305 0 0.62207 0.00683594 0.859375 0.015625z
M177.271 257.024h-0.0302734c16.0332 19.3008 19.2695 43.2598 6.95801 53.5449c-12.3125 10.2852 -35.3633 2.96484 -51.5176 -16.3359c-16.0938 -19.2998 -19.1797 -43.2588 -6.83691 -53.5439c12.2822 -10.2861 35.3027 -2.96484 51.4268 16.335zM292.377 9.26855
c23.7119 0 42.957 19.2441 42.957 42.9561s-19.2451 42.957 -42.957 42.957s-42.957 -19.2451 -42.957 -42.957s19.2451 -42.9561 42.957 -42.9561zM415.196 219.726v0.210938c-9.93555 0 -17.999 -8.06348 -17.999 -17.999s8.06348 -17.999 17.999 -17.999
c0.203125 -0.00878906 0.533203 -0.015625 0.736328 -0.015625c9.88574 0 17.9082 8.02344 17.9082 17.9092c0 9.88477 -8.02246 17.9082 -17.9082 17.9082c-0.203125 0 -0.533203 -0.00683594 -0.736328 -0.0146484zM312.131 284.372l-0.242188 -0.242188
c0 -18.1201 19.21 -32.8223 42.957 -32.7617c23.5957 0 43.1982 14.8525 43.1982 32.9736c0 18.1201 -19.3604 32.8223 -42.9561 32.8223c-23.8984 0 -42.957 -14.7021 -42.957 -32.792z" />
    <glyph glyph-name="uniF134" unicode="&#xf134;" 
d="M256 295.104l89.293 -51.5527v-103.104l-88.9932 -51.3789c-0.102539 0 -0.197266 0.03125 -0.299805 0.03125s-0.197266 -0.0263672 -0.299805 -0.03125l-88.9932 51.3789v103.107zM479.073 314.88v-245.76c0 -3.26367 -2.29395 -7.23633 -5.12012 -8.86816
l-212.838 -122.88c-1.3125 -0.756836 -3.60547 -1.37109 -5.12012 -1.37109s-3.80859 0.614258 -5.12012 1.37109l-212.831 122.88c-2.82617 1.63184 -5.12012 5.60449 -5.12012 8.86816v245.76c0 3.26367 2.29395 7.23633 5.12012 8.86816l212.836 122.88
c1.31152 0.757812 3.60547 1.37305 5.12012 1.37305s3.80859 -0.615234 5.12012 -1.37305l212.838 -122.88c3.16211 -1.82812 5.11523 -5.20996 5.11523 -8.86816zM365.768 140.446v103.107l91.3232 52.7227c2.8584 1.625 5.17871 5.61328 5.17871 8.90234
c0 5.65234 -4.58789 10.2393 -10.2402 10.2393c-1.53418 0 -3.85449 -0.629883 -5.17871 -1.40625l-91.3154 -52.7197l-89.2949 51.5498v107.003c0 5.65332 -4.58789 10.2402 -10.2402 10.2402s-10.2402 -4.58691 -10.2402 -10.2402v-107.003l-89.293 -51.5527
l-91.3145 52.7207c-1.32422 0.776367 -3.64453 1.40625 -5.17871 1.40625c-5.65332 0 -10.2402 -4.58789 -10.2402 -10.2402c0 -3.28809 2.32031 -7.27637 5.17871 -8.90234l91.3154 -52.7148v-103.106l-91.3154 -52.7236
c-2.8584 -1.625 -5.17871 -5.61328 -5.17871 -8.90137c0 -5.65234 4.58691 -10.2402 10.2402 -10.2402c1.53418 0 3.85449 0.629883 5.17871 1.40625l91.3145 52.7207l89.293 -51.5557v-105.217c0 -5.65234 4.58789 -10.2393 10.2402 -10.2393
s10.2402 4.58691 10.2402 10.2393v105.217l89.293 51.5527l91.3203 -52.7227c1.31152 -0.758789 3.60645 -1.37402 5.12109 -1.37402c3.26367 0 7.23633 2.29395 8.86621 5.12109c0.756836 1.31152 1.37109 3.60449 1.37109 5.11816
c0 3.2627 -2.29297 7.23535 -5.11914 8.86719z" />
    <glyph glyph-name="uniF124" unicode="&#xf124;" 
d="M281.654 291.285l-0.0302734 0.0214844c33.9434 -104.855 13.2285 -167.875 13.2178 -167.853c58.9785 80.6143 48.7168 191.956 48.7168 191.956c55.4883 -48.9424 66.1289 -90.3389 82.7305 -141.557c16.7725 24.7979 30.6875 37.9453 28.8633 33.2217
c-21.0518 -54.5391 26.5283 -78.9609 25.8975 -136.439c-0.631836 -57.4844 -92.0771 -123.274 -92.0771 -123.274l-0.0283203 0.0839844c-5.02246 -4.07715 -10.2422 -7.92871 -15.7432 -11.4307c5.0791 7.24121 8.77246 15.4707 10.8223 24.6797
c0.439453 1.95117 0.960938 3.85449 1.24219 5.89258c0.670898 4.91016 30.665 55.6318 16.1484 106.095c-6.8916 23.9756 -19.1387 47.8496 -40.4395 66.6338c0 0 -19.6016 -89.0107 -78.1953 -145.025c0 0 1.93164 31.2783 -30.2783 92.1807
c-34.3174 64.8828 -35.0156 166.135 -35.0156 166.135s-27.0127 -64.4531 -54.4385 -138.84c-14.0586 17.7412 -24.4121 26.5391 -22.8721 22.5566c9.76758 -25.3096 4.7168 -44.1406 -3.40332 -62.7939c-9.36426 -21.5371 -22.8291 -42.8486 -22.4912 -73.6445
c0.180664 -15.6084 7.73633 -31.8018 18.4912 -47.1514c2.70117 -3.84766 7.35254 -9.88672 10.3838 -13.4805c-3.52539 2.08301 -9.05957 5.74609 -12.3545 8.17578l-0.0224609 -0.0898438s-99.2188 65.79 -99.8613 123.269
c-0.631836 57.4893 46.9521 81.9043 25.8975 136.433c-1.94824 5.05273 15.1689 -10.3896 34.7861 -38.6113c46.6562 203.914 204.069 279.572 204.069 279.572s-47.9512 -51.8682 -14.0156 -156.715z" />
    <glyph glyph-name="uniF12F" unicode="&#xf12f;" 
d="M398.415 339.692c0 19.692 9.84604 29.5381 29.5381 29.5381c19.6927 0 29.5391 -9.84604 29.5391 -29.5381s-9.84634 -29.5381 -29.5391 -29.5381c-19.692 0 -29.5381 9.84604 -29.5381 29.5381zM319.646 398.77c0 19.692 9.84604 29.5381 29.5381 29.5381
c19.6927 0 29.5391 -9.84604 29.5391 -29.5381c0 -19.6927 -9.84634 -29.5391 -29.5391 -29.5391c-19.692 0 -29.5381 9.84634 -29.5381 29.5391zM240.876 418.462c0 19.692 9.84636 29.5381 29.5391 29.5381c19.692 0 29.5381 -9.84604 29.5381 -29.5381
c0 -19.6927 -9.84604 -29.5391 -29.5381 -29.5391c-19.6927 0 -29.5391 9.84634 -29.5391 29.5391zM162.107 379.077c0 19.692 9.84602 29.5381 29.5381 29.5381s29.5381 -9.84604 29.5381 -29.5381c0 -19.6927 -9.84602 -29.5391 -29.5381 -29.5391
s-29.5381 9.84634 -29.5381 29.5391zM398.415 339.692h0.0390625h59.0771v-265.847c0 -8.54477 -0.714752 -17.4847 -2.14429 -26.8197c-1.4295 -9.33502 -5.17056 -21.0207 -11.2231 -35.0569c-6.05261 -14.0363 -14.0761 -26.3334 -24.0705 -36.8913
s-24.7349 -19.7104 -44.2213 -27.4573s-42.2 -11.6205 -68.1405 -11.6205c-70.722 0 -122.355 24.7467 -154.899 74.2402c-18.2386 27.7403 -48.8141 74.0828 -91.7266 139.027c-5.82842 9.07854 -7.8322 18.6983 -6.01135 28.8591s6.93596 17.91 15.3453 23.2473
c8.46049 5.23267 17.7323 6.49944 27.8156 3.80029c10.0832 -2.69617 18.075 -8.59737 23.9755 -17.7036l39.877 -54.5479v246.154h59.0762v-147.692c0 -6.56445 3.28223 -9.84668 9.84668 -9.84668c6.5638 0 9.8457 3.28223 9.8457 9.84668v187.077h59.0771v-187.077
c0 -6.56445 3.28223 -9.84668 9.84668 -9.84668c6.56381 0 9.8457 3.28223 9.8457 9.84668v167.385h59.0771v-187.077c0 -6.56445 3.28189 -9.84668 9.8457 -9.84668c6.56445 0 9.84668 3.28223 9.84668 9.84668v128z" />
    <glyph glyph-name="uniF101" unicode="&#xf101;" 
d="M74.6494 151.624v0.0166016c0 -66.8281 36.5791 -125.249 90.8135 -156.407c-14.3516 -23.7832 -48.5439 -43.085 -76.3213 -43.085c-49.2061 0 -89.1416 39.9355 -89.1416 89.1416v0.03125c0 42.8428 67.2656 137.615 84.9219 161.941
c-6.45801 -19.085 -10.2725 -36.709 -10.2725 -51.6387zM422.858 208.975l-0.129883 0.0488281s89.2549 -118.353 89.2549 -167.638c-0.00878906 -49.1963 -39.9443 -89.125 -89.1416 -89.125c-28.2539 0 -62.7432 19.8047 -76.9863 44.2061
c53.1309 31.3525 88.8984 89.1738 88.8984 155.174c0 16.3252 -4.59277 35.8154 -12.1719 56.9609zM403.709 151.624v-0.015625c0 -82.2773 -66.7139 -149.008 -149.023 -149.008s-149.04 66.7305 -149.04 149.008c0 82.3418 149.057 280.163 149.057 280.163
s149.007 -197.821 149.007 -280.147zM202.366 67.2861h-0.0166016c2.68555 3.19824 4.86523 9.18262 4.86523 13.3594c0 5.31445 -3.29199 12.417 -7.34863 15.8516c-37.8115 31.8076 -25.1211 80.2324 -24.5039 82.6016
c0.324219 1.33301 0.587891 3.52734 0.587891 4.89941c0 11.4219 -9.26953 20.6914 -20.6904 20.6914c-8.26855 0 -17.0752 -6.37598 -19.6572 -14.2314c-0.892578 -3.08301 -21.1445 -76.1582 37.6016 -125.606c3.19434 -2.69434 9.17969 -4.88086 13.3604 -4.88086
c5.2959 0 12.375 3.27734 15.8018 7.31543z" />
    <glyph glyph-name="uniF12C" unicode="&#xf12c;" 
d="M390.394 448l-124.352 -235.557h112.815l-222.677 -276.443h-23.0498l65.4131 235.568h-76.9258l76.7695 276.432h192.006z" />
    <glyph glyph-name="uniF109" unicode="&#xf109;" 
d="M158.874 -64h-0.0107422c-108.624 61.2197 -137.222 119.168 -120.873 198.311c12.0713 58.4404 56.6465 105.986 60.4355 164.313c16.8867 -30.7246 18.8926 -52.8809 20.7842 -84.9893c53.7002 65.793 109.39 153.844 97.3467 234.365
c0 0 101.809 -32 142.981 -188.139c24.3271 21.6377 22.042 66.2256 10.0039 92.5625c36.124 -26.3369 243.609 -260.159 -32.5732 -416.424c51.9268 101.104 13.3926 237.528 -76.7617 300.533c6.02441 -27.0938 -1.50391 -97.834 -41.3906 -142.234
c9.03223 45.9053 -13.5449 75.2549 -13.5449 75.2549s-7.40234 -41.5537 -36.1221 -83.5312c-26.2266 -38.333 -44.3975 -79.0176 -10.2754 -150.022z" />
    <glyph glyph-name="uniF11A" unicode="&#xf11a;" 
d="M392.305 68.043l0.0126953 -0.03125c5.36035 -11.5186 0.368164 -25.1992 -11.1494 -30.5586c-3.13965 -1.46094 -6.44141 -2.15137 -9.68945 -2.15137c-8.67188 0 -16.9727 4.92676 -20.8721 13.3076l-9.79883 21.0586h-48.2021l-9.69043 -46.8066
c12.502 -8.5918 20.7246 -22.9844 20.7246 -39.2656c0 -26.2578 -21.3623 -47.6172 -47.6191 -47.6172c-26.2598 0 -47.627 21.3633 -47.627 47.6211c0 16.2812 8.21191 30.6738 20.7139 39.2646l-9.69629 46.8105h-48.2012l-9.7998 -21.0586
c-5.35938 -11.5127 -19.0459 -16.5049 -30.5586 -11.1445c-11.5127 5.35938 -16.5156 19.0342 -11.1562 30.5586l13.5596 29.1445c5.07227 10.9033 17.0107 18.5166 29.0332 18.5166h38.8789v251.108c0 6.2793 2.69727 14.8936 6.27441 20.0469l38.5859 55.5664
c2.46777 3.55078 6.09961 5.58691 9.97168 5.58691c3.87305 0 7.50684 -2.03613 9.97168 -5.58691l38.5869 -55.5674c3.57812 -5.15332 6.27637 -13.7676 6.27637 -20.0391v-251.104h38.8789c12.0264 0 23.9648 -7.61621 29.0342 -18.5195z" />
    <glyph glyph-name="uniF135" unicode="&#xf135;" 
d="M486.229 146.724l0.0195312 -0.0107422c-2.49512 -71.9863 -186.403 -153.154 -298.151 -109.303c-27.9727 -35.917 -68.2021 -69.6025 -102.242 -82.6602l-10.5518 -18.7705h-49.5127v229.504c18.3643 31.1074 52.0498 52.0488 90.8076 52.0488
c37.3779 0 70.1494 -19.4697 88.9199 -48.7617c21.9453 16.1826 53.0029 26.3086 87.5605 26.3086h0.0830078c6.46387 0 16.9082 -0.708984 23.3135 -1.58301c-29.9512 51.7354 -47.9707 132.681 -64.3057 156.99c-16.3555 24.3203 -67.4609 -13.6768 -93.293 5.1748
c-27.0898 19.6631 -13.0879 77.1299 12.0742 87.5098c25.1416 10.3789 63.1484 3.9873 97.1787 -18.71c12.3682 -8.23828 14.0518 -15.29 17.2178 -25.5674c1.23242 -0.256836 3.18652 -0.829102 4.3623 -1.2793c31.8184 -12.5605 115.554 -93.9922 147.188 -144.489
c19.7344 -31.5234 33.3301 -63.291 40.1992 -91.0303c3.89648 -4.58594 9.33398 -9.28418 9.13184 -15.3711z" />
    <glyph glyph-name="uniF136" unicode="&#xf136;" 
d="M482.212 164.689l0.0283203 -0.0878906c12.9414 -35.3262 -14.2812 -33.2275 -65.4062 -51.8818c-21.8604 -8.04492 -98.7217 -29.876 -118.92 -32.3535c-22.0645 -2.74023 -78.3477 -12.8828 -115.22 -7.49121c-27.2227 -34.918 -53.252 -89.5693 -86.3916 -102.307
l-19.0625 -33.752l-50.3662 -0.875l-0.291992 212.425c11.1641 44.7705 92.9219 76.7158 142.472 30.6045c0 0 13.6992 44.0127 65.2314 56.4883c51.5908 12.4453 81.3496 -31.7998 86.3633 -32.4414c-29.1475 50.3086 -32.0908 129.035 -47.9766 152.731
c-14.457 17.8379 -85.6631 -11.8047 -93.6787 5.01367c-8.01562 16.8174 5.625 9.12305 4.08008 13.6113c-9.53027 5.59668 -17.8955 25.2129 -18.6533 29.585c-2.68164 15.2148 9.90918 28.4766 12.2412 35.4717c3.70215 11.0762 12.7959 1.66113 24.2803 6.41211
c20.1406 8.27832 56.7783 -8.62695 88.4609 -23.4922c10.2314 -4.83887 14.5742 -11.8926 15.5938 -19.5283c1.19727 -0.270508 3.10352 -0.832031 4.25586 -1.25391c30.8965 -12.2129 112.421 -91.4932 143.229 -140.664
c19.1787 -30.6338 17.7803 -61.5303 24.4834 -88.5205c3.78906 -4.48828 3.20605 -2.15723 5.24707 -7.69434z" />
    <glyph glyph-name="uniF115" unicode="&#xf115;" 
d="M439.389 180.209c59.5156 -29.1182 72.6104 -85.4932 72.6104 -119.882c0 -47.9629 -114.611 -86.8232 -255.999 -86.8232c-141.389 0 -256 38.9131 -256 86.8232c0 17.3008 26.5635 40.1914 67.2871 62.4434c4.25879 -2.92773 8.94336 -5.69629 14.0537 -8.19824
c30.2363 -14.959 74.7393 -22.5176 132.179 -22.5176c58.2373 0 113.121 7.77148 154.644 21.8252c20.9736 7.08008 37.6885 15.5449 49.6133 25.126c6.6543 5.32422 11.8174 11.0732 15.4375 17.0352c4.15234 6.86719 6.22852 14.0537 6.22852 21.4004
c0 0.851562 -0.0537109 1.80957 -0.0537109 2.76758zM395.312 17.6875c50.9443 11.5518 89.4854 33.1641 86.0254 48.2822c-3.40625 15.0117 -19.0576 41.416 -70.002 29.8115c-50.9443 -11.6055 -117.912 -56.7471 -114.505 -71.8125
c3.45996 -15.0645 47.5371 -17.8867 98.4814 -6.28125zM80.8086 129.851c-21.9854 12.7217 -31.8867 29.3848 -31.8867 47.5889c0 22.8389 39.8184 57.334 95.9268 82.6201c4.47168 -2.07617 9.2627 -4.09961 14.373 -5.96289
c33.377 -12.2969 77.4014 -19.1104 124.033 -19.1104c43.1191 0 84.0557 5.80273 116.315 16.4492c18.2061 -20.8672 24.7539 -45.834 26.1914 -65.3711c0.212891 -3.03418 0.319336 -5.9082 0.319336 -8.62305c0 -39.8193 -95.1816 -72.1318 -212.615 -72.1318
c-63.667 0 -106.626 9.52832 -132.657 24.541zM342.451 208.902c-10.3809 -2.3418 -21.6133 -6.49414 -32.4199 -11.6582c-30.0762 -14.1602 -57.2783 -35.4004 -55.3096 -44.0234c2.66211 -11.7646 36.5723 -14.0537 75.6455 -5.16406s68.6172 25.6055 65.9561 37.3701
c-0.638672 2.87402 -1.86328 6.28125 -3.88574 9.63477c-6.28223 10.4336 -20.4424 20.5479 -49.9863 13.8408zM145.221 274.752c-19.377 10.167 -30.8223 22.5703 -30.8223 35.9854c0 34.4951 16.6621 99.7598 109.928 99.7598
c93.2646 0 227.679 -65.2109 227.679 -99.7061c0 -17.1416 -18.5791 -32.6328 -48.7617 -43.918c-2.29004 -0.851562 -4.63086 -1.70312 -7.02637 -2.50195s-4.89746 -1.59668 -7.39941 -2.3418c-28.9062 -8.57129 -65.6367 -13.7344 -105.615 -13.7344
c-47.5908 0 -90.5498 7.29297 -121.266 19.0039c-3.03418 1.1709 -5.96289 2.34277 -8.78418 3.62012c-2.76758 1.22461 -5.42969 2.50195 -7.93164 3.83301zM322.488 303.498c-0.425781 -2.28906 -0.532227 -4.52539 -0.373047 -6.60156
c0.107422 -2.55469 0.533203 -4.89746 1.01172 -6.86719v-0.0527344c1.49023 -5.90918 10.8594 -9.10352 23.8486 -9.10352c2.875 0 5.90918 0.160156 9.0498 0.479492c3.88574 0.373047 8.03809 1.01172 12.2969 1.86328
c2.12988 0.479492 4.31152 0.958008 6.54785 1.54395c1.06445 0.265625 2.12891 0.532227 3.19434 0.851562c24.4336 6.97363 41.8945 19.5898 39.499 28.8525c-1.86328 7.23926 -26.1377 13.8408 -49.1348 13.8408c-7.71875 0 -15.2783 -0.745117 -21.8252 -2.44922
c-16.4492 -4.31152 -22.5186 -13.627 -24.1152 -22.3574z" />
    <glyph glyph-name="uniF116" unicode="&#xf116;" 
d="M401.629 113.39l0.0214844 0.0205078c0.423828 0.417969 1.25195 0.756836 1.84766 0.756836s1.42383 -0.338867 1.84863 -0.756836l22.8242 -22.8398c0.421875 -0.423828 0.763672 -1.25195 0.763672 -1.84863s-0.341797 -1.4248 -0.763672 -1.84863l-11.7051 -11.7041
c-0.417969 -0.421875 -0.757812 -1.24707 -0.757812 -1.84082s0.339844 -1.41895 0.757812 -1.84082l62.3906 -62.3896c31.3105 -31.2959 29.4014 -33.2051 6.57617 -56.0303c-22.8242 -22.8242 -24.7344 -24.7188 -56.0293 6.57617l-62.4062 62.3906
c-0.421875 0.419922 -1.24902 0.759766 -1.84375 0.759766c-0.595703 0 -1.42188 -0.339844 -1.84473 -0.759766l-11.709 -11.7197c-0.423828 -0.418945 -1.25 -0.757812 -1.8457 -0.757812c-0.594727 0 -1.4209 0.338867 -1.84473 0.757812l-22.832 22.8301
c-0.419922 0.423828 -0.760742 1.25098 -0.760742 1.84668c0 0.59668 0.34082 1.42383 0.760742 1.84668zM459.998 0.430664v0.015625c1.09277 1.1582 1.98047 3.39062 1.98047 4.9834c0 4.00586 -3.25195 7.25781 -7.25879 7.25781
c-1.59473 0 -3.82812 -0.888672 -4.9873 -1.9834l-21.9307 -21.9316c-1.14062 -1.16797 -2.06543 -3.44043 -2.06543 -5.07227c0 -4.00879 3.25293 -7.26172 7.26172 -7.26172c1.62988 0 3.90137 0.922852 5.06836 2.06152zM428.438 32.0186l-0.00878906 0.015625
c1.17188 1.17285 2.12402 3.4707 2.12402 5.12891s-0.952148 3.95605 -2.12402 5.12891c-1.17383 1.17383 -3.47266 2.12695 -5.13184 2.12695c-1.66016 0 -3.95898 -0.953125 -5.13184 -2.12695l-21.9316 -21.9316c-1.17383 -1.1748 -2.12695 -3.47559 -2.12695 -5.13672
c0 -4.00977 3.25391 -7.26367 7.26367 -7.26367c1.66113 0 3.96191 0.953125 5.13574 2.12793zM316.877 156.061l-0.0166016 0.00585938c2.01758 1.74023 3.06445 0.662109 3.57324 0.108398c19.1455 -20.6689 34.7725 -37.5488 41.334 -44.6377
c2.15625 -2.33203 2.73926 -4.2002 0.486328 -6.44824l-30.1514 -30.1562c-2.24707 -2.24316 -4.07812 -0.950195 -7.42578 1.50391c-8.98242 6.56055 -27.1895 19.9902 -52.2627 39.7656c-1.46289 1.07812 -0.308594 2.52539 0.416016 3.11133
c14.585 11.751 28.3379 23.1318 44.0469 36.7471zM193.682 185.159l0.0107422 -0.0566406c-1.58008 -1.33984 -3.4043 -0.461914 -4.2207 0.261719c-55.0117 49.1143 -108.412 104.793 -122.565 146.223c-18.5801 54.3975 -10.7812 94.2041 -6.5 111.474
c2.58203 10.4131 9.58887 1.13574 9.58887 1.13574s100.475 -126.799 139.454 -168.478c8.90527 -9.54395 23.3398 -25.0547 32.2188 -34.6221c0.642578 -0.693359 1.38477 -2.47949 0.560547 -3.57324c-13.4053 -14.4463 -35.1543 -37.9053 -48.5469 -52.3643z
M451.582 443.057l0.00390625 0.0166016c4.28125 -17.2646 12.0801 -57.0771 -6.50586 -111.475c-29.0498 -85.0449 -223.435 -230.109 -257.758 -255.229c-3.3457 -2.44922 -5.18262 -3.74316 -7.42676 -1.50977l-30.1553 30.1562
c-2.25 2.24805 -1.66797 4.12695 0.488281 6.45312c19.3154 20.8682 117.23 126.629 152.306 164.177c38.9893 41.7461 139.461 168.545 139.461 168.545s7.00781 9.28027 9.58691 -1.13477zM106.68 113.39l0.00585938 -0.00878906
c0.421875 0.417969 1.24512 0.756836 1.83887 0.756836c0.594727 0 1.4209 -0.34082 1.84277 -0.761719l76.5742 -76.5596c0.417969 -0.421875 0.755859 -1.24707 0.755859 -1.84082c0 -0.592773 -0.337891 -1.41797 -0.755859 -1.83984l-22.8398 -22.8311
c-0.423828 -0.419922 -1.25195 -0.760742 -1.84766 -0.760742c-0.59668 0 -1.4248 0.34082 -1.84863 0.760742l-11.7051 11.71c-0.422852 0.420898 -1.25098 0.763672 -1.84766 0.763672c-0.597656 0 -1.42578 -0.342773 -1.84863 -0.763672l-62.3906 -62.3906
c-31.2949 -31.3027 -33.1895 -29.4014 -56.0293 -6.57617c-22.8291 22.8271 -24.7285 24.7266 6.57227 56.0293l62.3896 62.3906c1.01367 1.0166 1.01953 2.67383 0.00292969 3.68652l-11.7041 11.708c-0.419922 0.422852 -0.760742 1.25 -0.760742 1.8457
s0.34082 1.42188 0.760742 1.84473zM52.0273 10.6699l0.00390625 -0.00195312c-1.17383 -1.17383 -2.12598 -3.47363 -2.12598 -5.13379s0.952148 -3.95996 2.12598 -5.13379l21.9316 -21.9316c1.16113 -1.10449 3.40332 -2 5.00488 -2
c4.00879 0 7.26172 3.25293 7.26172 7.26074c0 1.60449 -0.897461 3.84766 -2.00293 5.00879l-21.9316 21.9316c-1.17383 1.17383 -3.47363 2.12695 -5.13379 2.12695s-3.95996 -0.953125 -5.13379 -2.12695zM83.5928 42.2256l0.00195312 0.0195312
c-1.17676 -1.17285 -2.13184 -3.47461 -2.13184 -5.13574c0 -1.66211 0.955078 -3.96289 2.13184 -5.13672l21.9316 -21.9463c1.16699 -1.13574 3.43457 -2.05762 5.06348 -2.05762c4.00684 0 7.25977 3.25293 7.25977 7.26074
c0 1.62793 -0.921875 3.89746 -2.05859 5.06445l-21.9316 21.9316c-1.17383 1.17285 -3.47266 2.12598 -5.13281 2.12598s-3.95996 -0.953125 -5.13379 -2.12598z" />
    <glyph glyph-name="uniF12B" unicode="&#xf12b;" 
d="M486.335 196.314l0.0859375 -0.0683594h0.0341797c14.1299 0 25.5967 -11.4668 25.5967 -25.5967v-0.154297l0.00683594 -0.625c0 -14.1328 -11.4707 -25.6035 -25.6035 -25.6035c-13.793 0 -25.2598 11.1904 -25.5967 24.9785
c-92.1475 -31.5371 -96.0859 -130.499 -96.0859 -130.499c0 -12.0879 -48.916 -21.916 -109.286 -21.916c-60.3018 0 -109.27 9.79395 -109.27 21.8818l-1.54004 11.8135c-13.5264 144.231 -62.7852 171.386 -93.4834 173.783
c0.0683594 -0.788086 0.239258 -1.54102 0.239258 -2.36328c0 -14.1768 -11.5059 -25.6816 -25.6816 -25.6816c-14.1768 0 -25.6826 11.5049 -25.6826 25.6816s11.5059 25.6826 25.6826 25.6826c7.87012 -0.0126953 17.6113 -5.45898 21.7441 -12.1562
c88.0557 50.4395 146.782 -27.292 146.782 -27.292c9.48535 76.1738 72.7656 111.067 109.406 125.106c-0.958984 2.58496 -1.47266 5.30762 -1.47266 8.18457c0 14.1758 11.5059 25.6816 25.6816 25.6816c14.1768 0 25.6826 -11.5059 25.6826 -25.6816
c0 -14.1768 -11.5059 -25.6826 -25.6826 -25.6826c-5.61523 0 -10.7686 1.84961 -14.9805 4.89648c-34.8936 -58.2129 16.8125 -129.609 16.8125 -129.609c51.0732 46.6387 109.835 14.6729 136.544 -4.62207c4.70801 5.95801 11.8477 9.86133 20.0664 9.86133z" />
    <glyph glyph-name="uniF107" unicode="&#xf107;" 
d="M180.723 -63.3271l-0.00878906 0.0136719c-25.7764 13.7051 -52.168 37.166 -71.0859 77.1221c-9.89746 20.8574 -37.7871 97.8633 34.1836 198.133c79.377 108.096 81.4512 198.573 79.167 230.142c-0.342773 4.75488 5.12012 7.69336 8.88477 4.76855
c10.3994 -8.07227 19.4619 -17.5391 27.209 -27.6709c29.7861 -38.9541 43.2979 -86.8926 43.2979 -133.463c0 -27.9736 2.90039 -50.9424 7.87207 -64.2236c12.4492 -33.25 34.3223 -18.4961 30.7256 39.6436c-0.302734 4.89355 5.43848 7.75488 9.12988 4.52539
c12.3418 -10.8008 33.6758 -35.9404 51.0264 -89.8262c13.4951 -42.5078 16.1934 -76.1973 14.3945 -100.267c-4.88086 -78.749 -48.1377 -118.32 -86.7051 -138.056c-4.96875 -2.54395 -10.125 3.07031 -7.20117 7.82227c31.1572 50.6562 11.8311 111.46 -23.4775 159.808
c-36.6875 50.2373 -50.2207 106.738 -50.2207 106.738s-25.4443 -48.416 -67.2598 -141.896c-25.0742 -56.0566 -9.33691 -99.583 7.2832 -125.45c3.0625 -4.76562 -2.21289 -10.5234 -7.21484 -7.86426z" />
    <glyph glyph-name="uniF132" unicode="&#xf132;" 
d="M127.978 -60.7676c-8.48145 -8.53516 -22.4043 1.33398 -17.123 12.1631l66.2568 136.728c3.41406 7.0957 -1.70703 15.3105 -9.60254 15.3105h-37.29c-7.89453 0 -13.0693 8.32227 -9.54883 15.417l58.6816 118.75c3.52051 7.0957 -1.6543 15.417 -9.54883 15.417
h-39.584c-7.89453 0 -13.0693 8.32227 -9.54883 15.418l85.835 173.643c1.76074 3.62793 5.49512 5.92188 9.54883 5.92188h175.564c8.80176 0 13.8164 -10.0293 8.53516 -17.0713l-111.016 -147.663c-5.28125 -7.04199 -0.266602 -17.0713 8.53613 -17.0713h43.6904
c8.96191 0 13.9238 -10.2959 8.375 -17.2842l-86.9014 -109.574c-5.54785 -6.9873 -0.533203 -17.2842 8.37598 -17.2842h13.0693c9.49609 0 14.2969 -11.4697 7.5752 -18.1914z" />
    <glyph glyph-name="uniF131" unicode="&#xf131;" 
d="M512 448l-224 -256l96 -64l-384 -192l224 192l-96 64z" />
    <glyph glyph-name="uniF130" unicode="&#xf130;" 
d="M404.572 440.584l0.00195312 0.000976562c0.861328 -1.64746 1.56055 -4.49512 1.56055 -6.35449c0 -2.38281 -1.10742 -5.90234 -2.47168 -7.85547l-105.949 -151.928h79.7178c4.36914 -0.00976562 9.69336 -3.08594 11.8838 -6.86621
c1.02832 -1.77344 1.8623 -4.87598 1.8623 -6.9248c0 -2.0127 -0.806641 -5.06738 -1.80078 -6.81738l-177.041 -310.896c-2.18262 -3.83203 -7.53418 -6.94141 -11.9443 -6.94141h-0.00488281c-1.37012 0.00195312 -3.52246 0.394531 -4.80469 0.875977
c-4.93555 1.84668 -8.94043 7.62207 -8.94043 12.8916c0 0.750977 0.119141 1.95801 0.266602 2.69434l45.3984 227.475h-112.689h-0.03125c-3.79688 0 -8.72266 2.46875 -10.9951 5.51074c-1.50293 2.01172 -2.72266 5.68359 -2.72266 8.19531
c0 1.10742 0.256836 2.86621 0.575195 3.92676l71.792 240.583c1.73926 5.8252 7.09473 9.8457 13.1709 9.8457h200.978c4.60254 -0.0117188 10.0635 -3.33398 12.1885 -7.41602z" />
    <glyph glyph-name="uniF10C" unicode="&#xf10c;" 
d="M506.941 37.8467c2.54688 -3.57129 5.06641 -7.34375 5.06641 -12.0889c0 -9.34473 -7.56738 -16.9326 -16.9326 -16.9326c-0.104492 0.00976562 -0.219727 0.0205078 -0.334961 0h-477.807c-6.03516 0 -11.627 3.22461 -14.6689 8.4502
c-1.25 2.17285 -2.26562 5.9707 -2.26562 8.47754c0 2.49609 1.00684 6.28027 2.24805 8.44629l191.139 332.468c3.05957 5.3252 8.87402 8.76367 14.915 8.49219c5.49121 -0.078125 12.0664 -4.06348 14.6748 -8.89648l72.1719 -133.949l30.75 28.79
c3.57422 3.33984 8.40332 4.95117 13.2949 4.48145c4.23242 -0.432617 9.6543 -3.60645 12.1035 -7.08496c0 0 117.373 -166.731 155.646 -220.653zM302.255 192.573c-3.1748 -2.95508 -7.3418 -4.16992 -11.5752 -4.16992l-0.149414 -35.5957v-0.0371094
c0 -1.74707 1.31152 -3.70508 2.92676 -4.36914c0.485352 -0.203125 1.30664 -0.368164 1.83301 -0.368164c1.08691 0 2.59082 0.623047 3.3584 1.39258l39.1953 39.1426c0.777344 0.771484 2.29688 1.39746 3.39258 1.39746h0.0107422
c1.1084 -0.0126953 2.63477 -0.667969 3.40723 -1.46289l54.9541 -57.2422l-64.7744 91.8281zM207.581 323.42v-0.0185547l-67.5518 -117.52l4.10059 -10.3818c0.662109 -1.65527 2.64746 -2.99902 4.43066 -2.99902c1.45312 0 3.26074 0.99707 4.03613 2.22559
l30.5771 48.7598c0.772461 1.23145 2.5791 2.23047 4.03223 2.23047c1.27441 0 2.94922 -0.8125 3.73828 -1.8125l20.2246 -25.6602c0.787109 -1.00098 2.45898 -1.8125 3.73145 -1.8125c0.993164 0 2.40234 0.53418 3.14648 1.19141l31.5547 27.834z" />
    <glyph glyph-name="uniF112" unicode="&#xf112;" 
d="M414.278 133.897c1.40234 0.491211 3.74609 0.889648 5.23145 0.889648c8.73242 0 15.8193 -7.08691 15.8193 -15.8184c0 -2.32812 -0.94043 -5.85547 -2.09863 -7.87402c-40.1084 -69.7363 -96.9238 -127.843 -168.865 -172.699
c-2.11914 -1.32324 -5.86816 -2.39746 -8.36621 -2.39746c-2.49902 0 -6.24707 1.07422 -8.36719 2.39746c-47.3896 29.5518 -88.5381 65.1318 -122.301 105.741c-2.0166 2.42578 -3.65234 6.95508 -3.65234 10.1094c0 5.19238 3.70215 11.418 8.26367 13.8975
l146.176 79.415c1.94824 1.05664 5.32812 1.91504 7.54492 1.91504c5.66699 0 12.1396 -4.20117 14.4463 -9.37793l18.1045 -40.6465zM256.001 -29.4443v-0.0078125c50.1621 32.5977 92.1201 72.2314 125.244 118.216l-68.3047 -23.9805
c-1.4043 -0.493164 -3.75195 -0.893555 -5.24121 -0.893555c-5.66699 0 -12.1387 4.20215 -14.4434 9.37891l-17.0713 38.335l-113.847 -61.8486c26.9453 -29.6729 58.3516 -56.2363 93.6631 -79.1992zM496.721 361.359l0.0478516 0.0078125
c2.39844 -2.5293 4.34473 -7.41113 4.34473 -10.8975c0 -0.236328 -0.0107422 -0.620117 -0.0234375 -0.855469c-3.16211 -58.5918 -15.0205 -114.901 -35.2324 -167.363c-1.45898 -3.78809 -5.75586 -7.9375 -9.59277 -9.2627l-109.625 -37.8418
c-1.38574 -0.479492 -3.7002 -0.868164 -5.16602 -0.868164c-5.84961 0 -12.4014 4.3916 -14.624 9.80176l-21.3193 51.8877l-194.849 -105.847c-1.9502 -1.06152 -5.33496 -1.92285 -7.55469 -1.92285c-4.79492 0 -10.7725 3.28516 -13.3428 7.33301
c-58.8174 92.4883 -75.335 189.217 -78.8398 254.069c-0.0126953 0.234375 -0.0234375 0.613281 -0.0234375 0.847656c0 3.49121 1.95508 8.37793 4.36328 10.9053c2.54688 2.71094 7.63184 4.91113 11.3506 4.91113l0.183594 -0.000976562h0.290039
c16.9238 0 32.7031 6.76172 44.4561 19.0527c11.9297 12.4805 18.0332 28.8496 17.1816 46.0947c-0.0107422 0.214844 -0.0185547 0.5625 -0.0185547 0.777344c0 8.72852 7.08301 15.8115 15.8115 15.8115v0h302.919h0.00390625c8.7207 0 15.7979 -7.07715 15.7979 -15.7979
c0 -0.21875 -0.00878906 -0.573242 -0.0195312 -0.791016c-0.842773 -17.2451 5.27051 -33.6143 17.208 -46.0898c11.7529 -12.2959 27.5332 -19.0527 44.4512 -19.0527h0.369141h0.000976562c3.74121 0 8.87109 -2.19922 11.4512 -4.90918zM438.943 200.46
l-0.046875 -0.0078125c15.7686 42.833 25.6777 88.3545 29.5508 135.63c-19.2969 3.41016 -36.9424 12.834 -50.8516 27.3799c-13.8848 14.5146 -22.6865 33.1934 -25.251 52.915h-272.688c-2.56152 -19.7217 -11.3682 -38.4004 -25.25 -52.915
c-13.9062 -14.5459 -31.5518 -23.9668 -50.8418 -27.3799c4.73047 -57.2373 20.4072 -135.134 65.2432 -211.002l197.136 107.095c1.94824 1.05957 5.33008 1.91895 7.54785 1.91895c5.85254 0 12.4053 -4.39453 14.627 -9.80859l22.3281 -54.3779z" />
    <glyph glyph-name="uniF11F" unicode="&#xf11f;" 
d="M383.711 145.585l-0.00195312 0.0175781c-1.87988 -0.525391 -1.96973 -2.56836 -0.121094 -3.09375c70.7246 -20.1436 106.93 -50.2119 106.93 -89.1943c0 -61.6162 -101.938 -117.316 -271.493 -117.316c-125.49 0 -197.538 45.3652 -197.538 106.975
c0 42.6113 34.3223 90.5732 99.3721 112.791c0.848633 0.295898 0.550781 1.64453 -0.435547 2.04785c-33.1729 13.5059 -51.3662 32.7734 -52.4307 57.4707c-1.31152 30.3857 41.0527 63.084 97.7373 86.2354c1.12305 0.459961 1.60352 1.77344 -1.10156 2.60059
c-37.1953 11.3584 -60.7246 39.4492 -59.6602 64.1348c1.63477 37.8789 34.1904 82.8994 111.342 79.5723c77.1484 -3.32812 169.996 -46.2305 168.361 -84.1025c-0.789062 -18.1426 -12.1328 -26.2725 -34.8115 -32.8174
c-0.948242 -0.274414 -1.0791 -1.10156 -0.183594 -1.25684c73.6289 -12.6738 105.814 -63.8447 107.722 -108.053c1.51465 -35.0234 -23.4043 -61.9043 -73.6865 -76.0107zM418.001 266.772c5.69824 7.59277 -90.7432 89.7471 -235.322 9.99609
c-3.83789 -2.11816 -5.5498 -5.77246 3.17285 -5.0332c3.02246 0.258789 65.5342 14.7129 128.095 11.1709c67.1025 -3.80078 96.5225 -26.1602 104.055 -16.1338zM132.993 397.749c5.92773 -7.89551 29.9326 7.62988 81.9346 12.7051
c49.8359 4.86523 103.553 -9.19141 105.931 -9.47754c5.47266 -0.662109 4.01367 0.898438 2.74414 1.63867c-116.787 67.8203 -195.164 1.20605 -190.609 -4.86621zM377.254 86.6113l0.0175781 -0.00195312c13.623 -2.64648 -2.08301 7.10449 -12.2031 11.3857
c-201.976 85.6094 -315.283 -2.07129 -302.36 -18.6367c11.8213 -15.1416 78.3086 17.2666 152.771 22.3809c84.3887 5.80176 157.75 -14.3486 161.775 -15.1279z" />
    <glyph glyph-name="uniF11E" unicode="&#xf11e;" 
d="M203.622 247.991c-86.5039 0 -135.046 31.8584 -133.462 63.502c3.61328 74.2041 120.977 60.1045 206.344 74.2041c95.3145 15.7451 106.908 -42.5605 106.908 -74.2041c0 -31.6738 -93.3008 -63.502 -179.79 -63.502zM271.737 368.845h-0.0615234
c-16.7598 -7.81055 59.3506 -3.87402 68.8838 -34.4414c5.04297 -16.1758 -11.9473 -39.3467 4.8125 -31.5508c16.7754 7.81055 22.2031 25.6768 17.4365 41.9141c-7.8877 26.9082 -74.3428 31.8584 -91.0713 24.0781zM114.473 238.996l-0.0146484 -0.123047
c24.8623 -8.76367 55.1992 -13.5303 89.1797 -13.5303c68.9141 0 159.447 19.7578 190.968 57.3213c73.6963 -10.0713 92.3008 -52.9238 92.3008 -85.875c0 -37.5938 -83.2139 -68.0684 -185.924 -68.0684c-102.634 0 -169.903 34.0264 -185.895 68.0684
c-8.05664 17.252 -7.44141 31.0439 -0.615234 42.207zM394.021 256.371h-0.015625c-16.7598 -7.7959 32.7812 -3.64453 42.2832 -34.2422c4.99707 -16.1602 -2.15234 -47.3574 14.6377 -39.5615c16.7451 7.81055 12.3936 33.7031 7.5957 49.9404
c-7.85645 26.9072 -47.7412 31.6582 -64.501 23.8633zM462.29 137.377v0.046875c30.5059 -14.6074 49.7256 -31.2129 49.7256 -47.9727c0 -51.8164 -114.643 -93.793 -256.008 -93.793c-141.381 0 -256.008 41.9766 -256.008 93.7158
c0 38.2549 26.9082 75.126 98.0059 91.7939c26.585 -45.1436 106.585 -75.0342 202.991 -75.0342c60.3809 0 121.008 10.6094 161.293 31.2432zM208.804 41.8164c99.4199 0 190.368 16.0215 192.29 24.4785c1.87598 8.50293 -131.771 -22.6025 -246.013 7.53418
c-66.1162 17.498 -100.835 52.8154 -109.322 42.4375c-8.4873 -10.3945 63.625 -74.4502 163.045 -74.4502z" />
    <glyph glyph-name="uniF111" unicode="&#xf111;" 
d="M455.312 275.173c-1.44043 -15.8428 2.87988 -38.5264 12.9619 -68.0508c10.8018 -29.5244 16.9219 -51.127 18.3633 -64.8096c0 -30.2451 -9.00195 -57.249 -27.0039 -81.0127c-14.4033 -17.2832 -37.0869 -36.3662 -68.0508 -57.249
c-8.6416 -5.76074 -21.9648 -11.5225 -39.9668 -17.2832l-23.7637 -8.64062c-6.48047 -2.88086 -11.8818 -5.04102 -16.2021 -6.48145c-0.72168 -0.720703 -4.68164 -2.51953 -11.8818 -5.40039c-4.32129 -2.16113 -11.1631 -5.04199 -20.5234 -8.6416
c-11.5234 -6.48145 -19.8037 -13.6826 -24.8438 -21.6035c-4.32031 7.20117 -12.6035 14.4023 -24.8438 21.6035l-15.1221 6.48047c-2.16113 0.720703 -4.86133 1.98047 -8.10156 3.78125s-5.94141 3.05957 -8.10156 3.78027
c-18.7236 4.32031 -45.3672 15.1221 -79.9326 32.4053c-32.4053 20.8828 -55.4492 40.3262 -69.1309 58.3291c-18.0039 23.7637 -26.6455 50.4082 -25.9238 79.9326c0.719727 6.48047 2.16016 15.4814 4.32031 27.0039c2.87988 11.5225 7.20117 24.8438 12.9629 39.9668
c10.0801 28.084 14.7607 50.0469 14.042 65.8896c-2.16016 33.8447 -12.2432 66.6113 -30.2451 98.2959l74.5322 71.291c22.3223 -17.2832 47.8857 -27.0049 76.6914 -29.165c27.3633 -2.16016 53.6465 2.88086 78.8525 15.1221
c24.4834 -12.9619 50.7676 -18.0029 78.8525 -15.1221c30.2441 1.44043 57.249 12.2422 81.0127 32.4053l74.5312 -72.3711c-19.4434 -30.2451 -30.6055 -63.7305 -33.4854 -100.456z" />
    <glyph glyph-name="uniF125" unicode="&#xf125;" 
d="M256 441.93c23.0449 45.9395 195.651 -179.766 195.651 -310.279c0 -108.056 -87.5957 -195.649 -195.651 -195.649s-195.651 87.5938 -195.651 195.649c0 84.8662 90.5566 157.933 141.768 226.111c25.3643 33.7705 38.0625 52.6289 53.8838 84.168zM236.479 -24.7119
c97.5654 0 176.942 79.3779 176.942 176.939c0 7.27539 -5.90332 13.1758 -13.1768 13.1758c-7.27246 0 -13.1758 -5.90039 -13.1758 -13.1758c0 -83.0352 -67.5557 -150.588 -150.59 -150.588c-7.27344 0 -13.1758 -5.90234 -13.1758 -13.1758
c0 -7.27539 5.90234 -13.1758 13.1758 -13.1758z" />
    <glyph glyph-name="uniF127" unicode="&#xf127;" 
d="M73.1445 210.285c-10.0967 0 -18.2871 8.19238 -18.2871 18.2861c0 10.0947 8.19238 18.2842 18.2871 18.2842h307.801c52.1885 0 94.4844 32.751 94.4844 73.1445s-21.543 63.4336 -73.1445 73.1445v36.5703c60.5996 0 109.715 -49.1152 109.715 -109.715
s-49.1152 -109.715 -109.714 -109.715h-329.142zM164.57 283.43c-10.0928 -0.000976562 -18.2852 8.19141 -18.2852 18.2852c0 10.0928 8.19238 18.2852 18.2861 18.2852h219.429c10.0938 0 18.2852 -8.19238 18.2852 -18.2852
c0 -10.0947 -8.19141 -18.2852 -18.2852 -18.2852h-219.43zM256.037 100.57v0.0146484c40.375 -0.0185547 73.1074 -32.7705 73.1074 -73.1445c0 -40.3906 -32.752 -73.1436 -73.1445 -73.1436v36.5674c20.2051 0 36.5713 16.3643 36.5713 36.5684
c0 20.2031 -16.3652 36.5674 -36.5713 36.5674h-146.285c-10.0938 0 -18.2861 8.19238 -18.2861 18.2852s8.19238 18.2852 18.2861 18.2852h146.322zM402.285 173.729v-0.0136719c60.5996 0 109.715 -49.1152 109.715 -109.715s-49.1152 -109.715 -109.714 -109.716
h-36.5713v36.5703c78.4648 0 109.715 32.75 109.715 73.1436s-42.2959 73.1445 -94.4834 73.1445h-362.661c-10.0928 0 -18.2852 8.19141 -18.2852 18.2842c0 10.0947 8.19238 18.2881 18.2852 18.3018h384z" />
    <glyph glyph-name="uniF128" unicode="&#xf128;" 
d="M446.64 266.151v-0.0107422c0 -48.002 -39.0713 -87.1406 -87.0732 -87.1406h-337.798c-12.0684 0 -21.8633 9.79492 -21.8633 21.8633s9.79492 21.8633 21.8633 21.8633h337.675c24.0078 0 43.5127 19.4844 43.5371 43.4922c0 18.084 -14.6133 32.7969 -32.708 32.7969
c-18.0957 0 -32.7871 -14.7129 -32.7871 -32.7744v-0.0117188c0 -12.0225 -9.75684 -21.7793 -21.7793 -21.7793c-12.0156 0 -21.7725 9.75195 -21.7793 21.7686c0 42.1074 34.2715 76.3223 76.3564 76.3223s76.3564 -34.3047 76.3564 -76.3896zM16.3428 267.58
c-9.04883 0 -16.3926 7.34473 -16.3926 16.3936s7.34375 16.3936 16.3926 16.3936h121.031c22.7959 0 41.3262 18.6201 41.3262 41.415c-0.0175781 17.5742 -14.2959 31.8877 -31.8711 31.9492c-17.5742 -0.0185547 -31.8525 -14.2969 -31.8701 -31.8711
c-0.316406 -8.7002 -7.6377 -15.7607 -16.3438 -15.7607c-8.69434 0 -16.0156 7.05078 -16.3428 15.7383c0 35.6104 28.9795 64.5342 64.5684 64.5342c35.5879 0 64.5566 -29.0244 64.5566 -64.6348c0 -40.8232 -33.2109 -74.1572 -74.0117 -74.1572h-121.043z
M424.938 141.034v0.0117188c48.001 0 87.0391 -39.0488 87.0391 -87.0732c0 -42.1074 -34.2705 -76.334 -76.3564 -76.334c-42.0957 0 -76.334 34.2715 -76.334 76.3564c0.378906 11.6367 10.1357 21.082 21.7793 21.082c11.6553 0 21.4131 -9.45508 21.7803 -21.1045
c0.318359 -17.7734 15.0039 -32.1982 32.7803 -32.1982c17.7588 0 32.4443 14.4102 32.7812 32.165c-0.0439453 23.9453 -19.5127 43.3799 -43.459 43.3799h-0.0107422h-316.008c-12.0654 0 -21.8574 9.79199 -21.8574 21.8574s9.79199 21.8574 21.8574 21.8574h316.008z
" />
    <glyph glyph-name="uniF12A" unicode="&#xf12a;" 
d="M36.3164 167.242v-0.0146484c-12.4648 0 -22.5713 10.1064 -22.5713 22.5713c0 12.4658 10.1064 22.5713 22.5713 22.5713h365.747c28.1396 0 51.0293 22.8896 51.0293 51.0244s-22.8916 51.0244 -51.0264 51.0244c-0.28418 0 -0.259766 0 -0.46875 0.00878906
c-1.50195 -0.0166016 -20.2793 -0.443359 -32.3516 -12.4326c-7.74512 -7.69629 -11.6748 -19.4336 -11.6748 -34.8945c0 -12.4648 -10.0977 -22.5713 -22.5635 -22.5713c-12.4736 0 -22.5713 10.1064 -22.5713 22.5713c0 28.2354 8.58301 50.9238 25.5244 67.4385
c25.2822 24.6465 59.1309 25.1152 64.3516 25.04c52.9229 -0.125977 95.9385 -43.2188 95.9385 -96.168c0 -53.0264 -43.1387 -96.1689 -96.1689 -96.1689h-365.766zM36.3164 255.658v0.0078125c-12.4648 0 -22.5713 10.0967 -22.5713 22.5635
s10.1064 22.5732 22.5713 22.5732h174.339c28.1348 0 51.0244 22.8896 51.0244 51.0244s-22.8896 51.0244 -51.0244 51.0244l-0.46875 0.00292969c-1.50586 -0.0146484 -20.2871 -0.449219 -32.3506 -12.4365c-7.74609 -7.69141 -11.6748 -19.4316 -11.6748 -34.8945
c0 -12.4668 -10.1035 -22.5732 -22.5703 -22.5732s-22.5713 10.1084 -22.5713 22.5732c0 28.2314 8.58691 50.9199 25.5215 67.4346c25.2715 24.6406 59.0713 25.1104 64.3467 25.0371c52.9258 -0.120117 95.9395 -43.2139 95.9395 -96.167
c0 -53.0273 -43.1416 -96.1699 -96.168 -96.1699h-174.343zM402.082 128.348h-0.0136719c53.0293 0 96.1689 -43.1396 96.1689 -96.168c0 -52.9482 -43.0098 -96.042 -95.9336 -96.167c-0.21582 -0.00390625 -0.467773 -0.00488281 -0.769531 -0.00488281
c-7.18652 -0.00195312 -39.3115 1.38477 -63.5732 25.042c-16.9326 16.5117 -25.5166 39.2002 -25.5166 67.4336c0 12.4678 10.1064 22.5732 22.5723 22.5732c12.4648 0 22.5713 -10.1064 22.5713 -22.5742c0 -15.4629 3.92969 -27.2031 11.6748 -34.8945
c12.0693 -11.9863 30.8477 -12.4199 32.3516 -12.4346c0.209961 0.0078125 0.183594 0.00292969 0.467773 0.00292969c28.1377 0 51.0273 22.8896 51.0273 51.0244s-22.8926 51.0244 -51.0273 51.0244h-365.766c-12.4648 0 -22.5713 10.1064 -22.5713 22.5713
c0 12.4658 10.1064 22.5713 22.5713 22.5713h365.766z" />
    <glyph glyph-name="uniF10E" unicode="&#xf10e;" 
d="M402.846 144.618l0.00488281 -0.00976562c69.6357 -17.2607 104.944 -50.9131 104.944 -100.03c0 -43.0078 -26.1436 -73.3115 -77.6982 -90.0762c-39.3789 -12.8076 -93.0723 -18.5166 -174.089 -18.5166c-141.189 0 -251.788 47.7012 -251.788 108.593
c0 49.6182 40.7568 102.189 151.18 113.791c-4.31445 1.41699 -11.2314 3.95215 -15.4395 5.66016c-39.3916 16.0664 -61.085 38.5371 -61.085 63.2588c0 41.2959 79.5625 72.2402 159.402 85.3613c-73.5029 1.20898 -123.205 8.90527 -123.205 51.1562
c0 46.6396 109.362 84.1943 199.911 84.1943c56.4932 0 131.603 -7.14844 131.575 -69.0303c0 -33.3105 -44.3066 -52.0264 -98.5654 -60.6387c91.9385 -7.71973 125.621 -50.6357 125.621 -91.0449c0 -24.7217 -21.6943 -47.1855 -61.0605 -63.2451
c-12.6123 -5.16211 -26.6562 -9.48145 -41.7178 -12.9561c11.085 -1.80957 21.8027 -3.93457 32.0098 -6.4668zM149.127 111.333v-0.0126953c4.89844 0.526367 8.87402 4.95215 8.87402 9.87891c0 5.48535 -4.45117 9.93652 -9.93555 9.93652
c-0.293945 0 -0.768555 -0.0253906 -1.06055 -0.0576172c-7.19824 -0.769531 -71.0195 -8.36426 -94.1973 -37.0078c-1.21973 -1.50781 -2.20996 -4.30566 -2.20996 -6.24512c0 -5.47754 4.44434 -9.92578 9.92188 -9.92871h0.015625
c2.61328 0 6.06641 1.65039 7.70898 3.68359c15.292 18.8965 63.5693 27.8867 80.8828 29.7529zM220.146 261.716v-0.0273438c4.45605 0.848633 8.07227 5.21875 8.07227 9.75488c0 5.48145 -4.44824 9.92969 -9.92969 9.92969
c-0.517578 0 -1.34961 -0.078125 -1.8584 -0.174805c-2.51172 -0.47168 -61.8477 -11.9893 -91.7822 -35.2959c-2.10254 -1.64648 -3.80859 -5.14844 -3.80859 -7.81934c0 -5.47266 4.44141 -9.9209 9.91504 -9.92871c2.13477 0 4.28418 0.682617 6.0957 2.09766
c26.1475 20.3682 82.7246 31.3525 83.2959 31.4639zM238.253 397.813l0.00976562 0.00292969c4.36426 0.908203 7.90527 5.2627 7.90527 9.71973c0 5.48047 -4.44824 9.92871 -9.92871 9.92871c-0.472656 0 -1.23438 -0.0654297 -1.7002 -0.146484
c-2.18359 -0.412109 -53.8125 -10.4248 -79.9492 -30.793c-2.11328 -1.64648 -3.82812 -5.15527 -3.82812 -7.83398c0 -5.48047 4.44727 -9.92871 9.92773 -9.92871h0.00683594c1.87695 0.000976562 4.60156 0.939453 6.08105 2.09473
c22.3535 17.4199 70.9863 26.8623 71.4756 26.9561z" />
    <glyph glyph-name="uniF100" unicode="&#xf100;" 
d="M461.56 -4.68848c0.9375 0.773438 1.93066 1.5459 2.97754 2.20801c1.71094 1.21387 2.75879 1.82129 2.75879 1.82129s-1.21289 -0.220703 -3.25391 -0.828125c-2.86914 -0.827148 -5.73828 -1.93066 -8.38672 -3.31055
c-4.02734 -1.87598 -7.72461 -4.5791 -10.9238 -7.55859c-1.82129 -1.70996 -3.53125 -3.69629 -5.18652 -5.90332c-0.387695 -0.551758 -0.772461 -1.15918 -1.15918 -1.71094c-0.0546875 -0.0546875 -0.0546875 -0.111328 -0.110352 -0.166016l-43.8086 43.8086
l-31.0625 -31.0635c-3.42188 -3.4209 -9.04883 -3.4209 -12.4697 0l-12.3037 12.3047c-3.4209 3.4209 -3.4209 9.04883 0 12.4697l91.8652 91.9199c3.4209 3.4209 9.04883 3.4209 12.4697 0l12.3037 -12.248c3.4209 -3.4209 3.4209 -9.04883 0 -12.4697l-31.0635 -31.0635
l53.4092 -53.4082c0.716797 0.0546875 1.48926 0.110352 2.26172 0.110352c17.7666 0 32.1113 -14.3457 32.1113 -32.1113c0 -17.7676 -14.4004 -32.1133 -32.1113 -32.1133c-4.30371 0 -8.60742 0.828125 -12.5801 2.53809
c-11.4756 4.91113 -19.0352 17.1611 -19.3105 29.5186c-0.0556641 10.8154 5.57227 20.4141 13.5732 27.2559zM35.5586 290.551l-35.3115 147.204c-1.43457 6.01465 3.91797 11.3662 9.93164 10.042l148.474 -33.9307c6.40039 -1.49023 12.0283 -5.13184 15.9453 -10.373
l220.477 -294.41l-20.5244 -20.5254l-253.14 237.359l237.359 -253.14l-19.8623 -19.8623l-293.196 222.076c-5.07617 3.8623 -8.66211 9.37988 -10.1523 15.5596z" />
  </font>
</defs>
</svg>
