<svg xmlns="http://www.w3.org/2000/svg" width="612" height="612" viewBox="0 0 612 612"><path d="M87.43 284.143h393.428C553.292 284.143 612 225.435 612 153S553.292 21.857 480.857 21.857V65.57c61.68 11.607 87.43 39.147 87.43 87.43s-50.557 87.43-112.938 87.43H87.43c-12.066 0-21.858 9.79-21.858 21.856 0 12.065 9.79 21.857 21.857 21.857zm109.284-87.43H459c12.065 0 21.857-9.79 21.857-21.856 0-12.065-9.792-21.857-21.857-21.857H196.714c-12.065 0-21.857 9.792-21.857 21.857s9.792 21.857 21.857 21.857zm109.33 218.573h-174.9c-12.066 0-21.858 9.792-21.858 21.856 0 12.065 9.792 21.857 21.857 21.857H306c24.152 0 43.714 19.56 43.714 43.71 0 24.15-19.562 43.71-43.714 43.71v43.71c48.282 0 87.43-39.15 87.43-87.43 0-48.26-39.125-87.408-87.386-87.43zm174.813-87.43h-459C9.792 327.856 0 337.65 0 349.716c0 12.064 9.792 21.856 21.857 21.856H455.35c62.38 0 112.937 39.147 112.937 87.43s-37.354 87.43-131.144 87.43v43.713h43.715C553.292 590.143 612 531.435 612 459s-58.708-131.143-131.143-131.143z"/></svg>