<svg xmlns="http://www.w3.org/2000/svg" width="45.864" height="45.865" viewBox="0 0 45.864 45.865"><path d="M40.01 16.29c0-3.77-3.07-6.843-6.84-6.843s-6.84 3.065-6.84 6.837a1.95 1.95 0 0 0 3.902-.002c0-1.618 1.316-2.936 2.937-2.936s2.93 1.318 2.93 2.938a3.9 3.9 0 0 1-3.9 3.896H1.95a1.958 1.958 0 0 0 0 3.917h30.26c4.3 0 7.8-3.506 7.8-7.806z"/><path d="M1.464 16.162h10.843c3.655 0 6.63-2.986 6.63-6.643 0-3.19-2.595-5.79-5.783-5.79S7.37 6.32 7.37 9.51a1.465 1.465 0 0 0 2.928-.002 2.858 2.858 0 0 1 2.855-2.855 2.865 2.865 0 0 1 2.855 2.862c0 2.042-1.66 3.71-3.702 3.71H1.464a1.468 1.468 0 0 0 0 2.937zm36.602 11.336H9.758a1.958 1.958 0 0 0 0 3.916h28.308A3.893 3.893 0 0 1 41.96 35.3a2.937 2.937 0 0 1-5.873-.003 1.952 1.952 0 0 0-3.902-.002c0 3.77 3.067 6.84 6.838 6.84 3.77 0 6.84-3.066 6.84-6.838 0-4.302-3.497-7.8-7.797-7.8z"/></svg>