<svg xmlns="http://www.w3.org/2000/svg" width="927.969" height="927.969" viewBox="0 0 927.969 927.969"><path d="M836.548 820.47c-14.5 12.4-24.7 29.798-24.6 49.4.5 22.397 14.2 44.6 35 53.5 7.2 3.1 15 4.6 22.8 4.6 32.1 0 58.2-26 58.2-58.202 0-32.2-26-58.2-58.2-58.2-1.4 0-2.8.1-4.1.2l-96.8-96.8 56.3-56.3c6.2-6.2 6.2-16.4 0-22.6l-22.3-22.2c-6.2-6.2-16.4-6.2-22.6 0l-166.5 166.6c-6.2 6.2-6.2 16.4 0 22.6l22.3 22.302c6.2 6.2 16.398 6.2 22.6 0l56.3-56.3 79.4 79.4c.1-.1.1-.202.2-.302.7-1 1.398-2.1 2.1-3.1 3-4 6.1-7.6 9.4-10.7 5.8-5.4 12.5-10.3 19.8-13.7 4.8-2.5 10-4.5 15.2-6 3.7-1.1 5.898-1.5 5.898-1.5s-1.9 1.1-5 3.3c-1.898 1.2-3.698 2.6-5.398 4zm-772.1-535.1c2.7 11.2 9.2 21.2 18.4 28.2l531.4 402.5 36-36-430.2-458.8 458.8 430.2 37.2-37.202-399.6-533.6c-7.1-9.5-17.3-16.1-28.9-18.8L18.448.368c-10.9-2.4-20.6 7.3-18 18.2l64 266.8z"/></svg>