<svg xmlns="http://www.w3.org/2000/svg" width="31.55" height="31.55" viewBox="0 0 31.55 31.55"><path d="M4.6 18.263c0-.92.235-2.006.633-3.182C4.145 16.58 0 22.42 0 25.06a5.493 5.493 0 0 0 10.196 2.84C6.854 25.98 4.6 22.38 4.6 18.262zm21.457-3.533l-.017.023c.467 1.303.75 2.504.75 3.51 0 4.067-2.204 7.63-5.478 9.562a5.493 5.493 0 0 0 10.237-2.768c0-3.037-5.5-10.33-5.5-10.33z"/><path d="M24.877 18.263C24.877 13.19 15.695 1 15.695 1S6.51 13.19 6.51 18.264c0 5.07 4.112 9.182 9.184 9.182s9.183-4.112 9.183-9.182zM12.47 23.46a1.277 1.277 0 0 1-1.797.15c-3.62-3.047-2.372-7.55-2.317-7.74a1.275 1.275 0 0 1 2.45.7c-.038.146-.82 3.13 1.51 5.09a1.28 1.28 0 0 1 .153 1.8z"/></svg>