<svg xmlns="http://www.w3.org/2000/svg" width="96.769" height="96.768" viewBox="0 0 96.769 96.768"><path d="M78.13 62.958c-.434-4.48-1.723-9.157-3.728-13.527-1.82-3.98-4.206-7.78-7.09-11.3-.81-.99-1.632-1.94-2.057-2.38l-.98-1.07a12.43 12.43 0 0 0-.638-.69l-.293-.29a14.624 14.624 0 0 1-.992-1.07 17.097 17.097 0 0 0-.436-.452c-.208-.21-.444-.445-.654-.71l-.083-.097a68.382 68.382 0 0 1-3.84-4.555c-1.28-1.675-2.18-3.062-2.92-4.51-.87-1.645-1.52-3.48-1.93-5.46-.39-1.795-.62-3.855-.68-6.13-.06-2.02.06-3.96.19-5.58a80.83 80.83 0 0 1 .3-2.875A2 2 0 0 0 49.81.07c-.953.25-1.93.58-2.9.98-2.032.83-4.032 1.98-5.946 3.43-2.44 1.853-4.58 4.142-6.36 6.8-2.18 3.246-3.722 7.065-4.46 11.03-.84 4.363-.747 9.286.26 13.854.958 4.424 2.81 8.94 5.367 13.075 1.35 2.15 2.65 3.95 3.93 5.46.38.47 1.44 1.7 1.45 1.72l.42.48c.296.33.506.58.72.84.2.23.363.43.545.62l.03.03c2 2.39 3.41 4.15 4.576 5.7a63.56 63.56 0 0 1 3.455 5.064c1.108 1.813 1.9 3.4 2.49 4.984.665 1.802 1.103 3.756 1.306 5.815.187 1.81.188 3.843.005 6.2-.184 2.136-.517 4.084-.78 5.51-.195.977-.387 1.88-.562 2.656a2 2 0 0 0 2.334 2.403 21.01 21.01 0 0 0 2.74-.73c2.09-.68 4.153-1.67 6.123-2.93 2.55-1.618 4.86-3.69 6.85-6.155 2.416-2.99 4.303-6.577 5.456-10.37 1.29-4.224 1.733-8.926 1.27-13.59zM38.92 75.206a23.718 23.718 0 0 0-3.234-5.16c-.33-.406-.73-.87-.924-1.073l-.46-.504a7.928 7.928 0 0 0-.3-.33l-.126-.13a7.073 7.073 0 0 1-.485-.52l-.17-.18c-.1-.11-.2-.21-.28-.32a1.717 1.717 0 0 0-.07-.08 31.4 31.4 0 0 1-1.72-2.047c-.42-.558-.91-1.24-1.34-2.07a9.504 9.504 0 0 1-.88-2.496 15.292 15.292 0 0 1-.303-2.794 22.09 22.09 0 0 1 .064-2.21 2 2 0 0 0-2.853-1.947c-.74.353-1.47.797-2.164 1.323a12.825 12.825 0 0 0-2.9 3.1 13.512 13.512 0 0 0-2.036 5.03c-.388 1.996-.347 4.246.113 6.33.436 2.02 1.282 4.082 2.453 5.98.618.98 1.208 1.8 1.776 2.47.164.206.53.625.69.81l-.006.005.18.2a13 13 0 0 1 .336.393l.22.26.03.032c.62.736 1.42 1.7 2.098 2.606a28.16 28.16 0 0 1 1.58 2.313c.5.822.862 1.545 1.13 2.27.303.823.504 1.72.597 2.664.083.823.083 1.75 0 2.813A24.53 24.53 0 0 1 29.66 94a2 2 0 0 0 2.722 2.19 12.553 12.553 0 0 0 2.036-1.06 12.885 12.885 0 0 0 3.137-2.81 14.12 14.12 0 0 0 2.49-4.733c.58-1.903.786-4.108.58-6.206-.2-2.04-.788-4.18-1.7-6.17z"/></svg>