<svg xmlns="http://www.w3.org/2000/svg" width="96.769" height="96.768" viewBox="0 0 96.769 96.768"><path d="M78.13 62.958c-.434-4.48-1.723-9.157-3.728-13.527-1.82-3.98-4.206-7.78-7.09-11.3-.81-.99-1.632-1.94-2.057-2.38l-.98-1.07a12.43 12.43 0 0 0-.638-.69l-.293-.295a14.624 14.624 0 0 1-.992-1.07 17.097 17.097 0 0 0-.436-.454c-.208-.21-.444-.445-.654-.71l-.083-.097a68.382 68.382 0 0 1-3.84-4.555c-1.28-1.676-2.18-3.063-2.92-4.51-.87-1.646-1.52-3.48-1.93-5.46-.39-1.796-.617-3.856-.678-6.13-.06-2.02.063-3.96.19-5.58a80.83 80.83 0 0 1 .3-2.876A2 2 0 0 0 49.81.07c-.953.25-1.93.58-2.9.98-2.032.83-4.032 1.98-5.946 3.43-2.44 1.853-4.58 4.142-6.36 6.8-2.18 3.246-3.722 7.065-4.46 11.03-.84 4.363-.747 9.286.26 13.854.958 4.424 2.81 8.94 5.367 13.075 1.35 2.15 2.65 3.95 3.93 5.46.38.476 1.435 1.704 1.446 1.72l.42.48c.293.333.503.584.717.84.2.235.363.43.545.624l.03.03c2 2.393 3.41 4.15 4.576 5.703a63.56 63.56 0 0 1 3.455 5.064c1.107 1.814 1.9 3.4 2.49 4.985.664 1.802 1.102 3.756 1.305 5.815.187 1.81.188 3.844.005 6.2-.185 2.137-.518 4.085-.78 5.51-.196.978-.388 1.88-.563 2.657a2 2 0 0 0 2.334 2.403A21.01 21.01 0 0 0 58.42 96c2.09-.68 4.152-1.67 6.122-2.93 2.554-1.617 4.86-3.69 6.853-6.154 2.416-2.99 4.303-6.577 5.456-10.37 1.29-4.224 1.732-8.926 1.27-13.59zM38.92 75.206a23.718 23.718 0 0 0-3.234-5.16c-.33-.406-.73-.87-.924-1.073l-.46-.504a7.928 7.928 0 0 0-.3-.33l-.126-.13a7.073 7.073 0 0 1-.485-.52l-.17-.18c-.1-.106-.2-.207-.28-.313a1.717 1.717 0 0 0-.07-.08 31.4 31.4 0 0 1-1.72-2.047c-.423-.557-.91-1.24-1.344-2.07a9.504 9.504 0 0 1-.88-2.495 15.292 15.292 0 0 1-.306-2.794 22.09 22.09 0 0 1 .063-2.21 2 2 0 0 0-2.853-1.947c-.74.353-1.47.797-2.165 1.323a12.825 12.825 0 0 0-2.9 3.1 13.512 13.512 0 0 0-2.036 5.03c-.388 1.997-.347 4.247.113 6.33.438 2.02 1.284 4.083 2.455 5.98.616.98 1.206 1.802 1.774 2.472.166.205.53.624.69.81l-.004.004.178.2a13 13 0 0 1 .337.394c.086.104.158.19.22.26l.03.033c.62.737 1.418 1.7 2.097 2.607a28.16 28.16 0 0 1 1.58 2.313c.502.823.863 1.546 1.132 2.27.303.824.504 1.72.597 2.665.084.824.084 1.752.002 2.814A24.53 24.53 0 0 1 29.66 94a2 2 0 0 0 2.722 2.19 12.553 12.553 0 0 0 2.036-1.06 12.885 12.885 0 0 0 3.137-2.81 14.12 14.12 0 0 0 2.49-4.733c.58-1.903.786-4.108.58-6.206-.2-2.04-.788-4.18-1.7-6.17z"/></svg>