<svg xmlns="http://www.w3.org/2000/svg" width="438.94" height="438.94" viewBox="0 0 438.94 438.94"><path d="M264.407 48.53c4.334-3.385 7.922-1.652 7.972 3.848l.56 64.615c.044 5.5 3.813 12.518 8.37 15.597l53.55 36.167c4.56 3.078 4.02 7.025-1.194 8.77L272.39 198.03c-5.217 1.746-10.73 7.5-12.245 12.785l-17.85 62.104c-1.522 5.283-5.44 5.99-8.712 1.57l-38.438-51.94c-3.27-4.425-10.445-7.89-15.942-7.7l-64.58 2.218c-5.497.186-7.38-3.324-4.187-7.8l37.523-52.608c3.19-4.478 4.27-12.37 2.39-17.54l-22.06-60.73c-1.88-5.17.877-8.045 6.122-6.393l61.626 19.43c5.246 1.655 13.087.24 17.42-3.144l50.95-39.753zm16.29-44.006a8 8 0 0 1 14.413 6.955l-7.827 16.21a8 8 0 0 1-14.41-6.957l7.827-16.21z"/><path d="M93.9 168.534a8.002 8.002 0 0 1-3.783-15.548l17.49-4.253a7.998 7.998 0 0 1 9.665 5.88 8 8 0 0 1-5.883 9.666l-17.49 4.25zM149.993 29.23a8.002 8.002 0 0 1 14.208-7.36l8.28 15.984c2.03 3.922.5 8.75-3.42 10.78a8 8 0 0 1-10.784-3.423l-8.28-15.98zm136.285 232.168a8 8 0 0 0 10.618 3.907c4.01-1.854 5.763-6.606 3.908-10.616l-7.552-16.347a7.995 7.995 0 0 0-10.615-3.907 8 8 0 0 0-3.908 10.615l7.545 16.344zm74.182-130.574a8.002 8.002 0 0 0 6.31-9.39 8 8 0 0 0-9.388-6.313l-17.665 3.466a7.998 7.998 0 0 0-6.314 9.386c.853 4.336 5.054 7.164 9.392 6.313l17.664-3.458zM99.487 434.422c-1.912 3.963-6.72 5.64-10.682 3.728l-12.27-5.923c-3.96-1.91-5.64-6.72-3.726-10.682l89.86-186.162c1.912-3.963 6.72-5.64 10.682-3.728l12.27 5.922c3.96 1.912 5.64 6.72 3.727 10.683L99.487 434.422z"/></svg>