<svg xmlns="http://www.w3.org/2000/svg" width="438.94" height="438.94" viewBox="0 0 438.94 438.94"><path d="M264.407 48.53c4.334-3.385 7.922-1.652 7.972 3.848l.56 64.615c.046 5.5 3.815 12.518 8.373 15.597l53.548 36.167c4.56 3.078 4.02 7.025-1.193 8.77L272.39 198.03c-5.217 1.746-10.73 7.5-12.245 12.785l-17.85 62.104c-1.522 5.285-5.44 5.992-8.712 1.57l-38.438-51.94c-3.27-4.423-10.445-7.887-15.942-7.697l-64.58 2.217c-5.497.187-7.38-3.323-4.187-7.8l37.523-52.607c3.193-4.478 4.27-12.37 2.392-17.54L128.29 78.39c-1.88-5.17.877-8.045 6.122-6.393l61.626 19.43c5.246 1.655 13.087.24 17.42-3.144l50.95-39.753zm16.29-44.006a8 8 0 0 1 14.413 6.955l-7.827 16.21a8 8 0 0 1-14.41-6.955l7.827-16.21z"/><path d="M93.9 168.534a8.002 8.002 0 0 1-3.783-15.548l17.49-4.253a7.998 7.998 0 0 1 9.665 5.88 8 8 0 0 1-5.883 9.666l-17.49 4.253zM149.993 29.23a8.002 8.002 0 0 1 14.208-7.36l8.28 15.984c2.03 3.922.5 8.75-3.422 10.78a8 8 0 0 1-10.784-3.423l-8.28-15.98zm136.285 232.168a8 8 0 0 0 10.618 3.907c4.01-1.854 5.763-6.606 3.908-10.616l-7.552-16.345a7.995 7.995 0 0 0-10.615-3.907 8 8 0 0 0-3.908 10.615l7.547 16.343zm74.182-130.574a8.002 8.002 0 0 0 6.31-9.39 8 8 0 0 0-9.388-6.313l-17.665 3.464a7.998 7.998 0 0 0-6.314 9.386c.853 4.335 5.054 7.163 9.392 6.312l17.664-3.458zM99.487 434.422c-1.912 3.963-6.72 5.64-10.682 3.728l-12.27-5.923c-3.96-1.91-5.64-6.72-3.726-10.682l89.86-186.162c1.914-3.963 6.72-5.64 10.684-3.728l12.27 5.922c3.96 1.912 5.64 6.72 3.727 10.683L99.488 434.422z"/></svg>