<svg xmlns="http://www.w3.org/2000/svg" viewBox="0 0 258.34 258.34"><g fill="#030104"><path d="M94.068 94.383l13.57-14.133-39.47-40.79.055-3.056 3.03.07L110.62 77.15l13.106-13.647-37.51-38.893-31.534.073.06 29.09zm84.174 55.865c11.265.535 19.78-.75 25.052-4.24L165 106.3l-13.035 13.577 22.383 23.13L171.26 146l-22.273-23.022-13.56 14.12 37.264 38.482c3.64-5.282 5.39-13.883 5.56-25.332z"/><path d="M208.676 119.153c14.344 27.952 3.412 38.115-24.94 36.77-.426 29.403-11.362 40.07-37.58 23.73 10.185 30.17 39.962 26.675 51.08-9.778 28.13-5.993 47.047-34.56 11.44-50.722z"/><path d="M243.566 195.636l-6.555-6.773c-12.98-13.422-28.59-19.39-34.85-13.326-6.26 6.06-.81 21.854 12.18 35.275l6.56 6.773c12.987 13.422 28.595 19.39 34.858 13.327 6.264-6.062.814-21.855-12.175-35.276zm-188.518-49.15c5.27 3.49 13.783 4.775 25.048 4.242.165 11.447 1.923 20.053 5.555 25.33L203.6 54.252l.06-29.672-30.808.02L55.048 146.487zM187.088 36.95l3.03-.067.058 3.058L87.08 146.48l-3.088-2.99L187.087 36.952z"/><path d="M74.606 156.4c-28.354 1.346-39.285-8.816-24.94-36.77-35.61 16.163-16.692 44.73 11.44 50.72 11.118 36.456 40.896 39.95 51.078 9.782-26.218 16.34-37.155 5.67-37.578-23.73z"/><path d="M21.328 189.34l-6.555 6.774C1.785 209.536-3.667 225.33 2.598 231.39c6.264 6.062 21.87.095 34.858-13.326l6.555-6.773c12.99-13.42 18.44-29.21 12.18-35.27-6.26-6.06-21.87-.09-34.85 13.33z"/></g></svg>