<svg xmlns="http://www.w3.org/2000/svg" viewBox="0 0 454.647 454.647"><path d="M250.104 139.16C219.97 46.058 262.55 0 262.55 0S122.77 67.183 81.34 248.255c-17.42-25.06-32.62-38.773-30.89-34.286 18.696 48.42-23.557 70.1-22.996 121.15.57 51.04 88.675 109.46 88.675 109.46l.02-.08a129.19 129.19 0 0 0 10.97 7.26 170.895 170.895 0 0 1-9.22-11.97c-9.55-13.63-16.26-28.01-16.42-41.87-.3-27.346 11.656-46.27 19.972-65.395 7.21-16.564 11.695-33.285 3.022-55.76-1.368-3.536 7.826 4.276 20.31 20.03 24.353-66.054 48.34-123.287 48.34-123.287s.62 89.91 31.093 147.525c28.602 54.08 26.887 81.854 26.887 81.854 52.03-49.74 69.436-128.78 69.436-128.78 18.915 16.68 29.79 37.88 35.91 59.17 12.89 44.81-13.744 89.85-14.34 94.21-.25 1.81-.713 3.5-1.103 5.233-1.82 8.177-5.1 15.485-9.61 21.915 4.885-3.11 9.52-6.53 13.98-10.15l.025.074s81.202-58.42 81.763-109.465c.56-51.04-41.69-72.726-22.997-121.156 1.62-4.195-10.736 7.48-25.63 29.5-14.742-45.48-24.19-82.24-73.463-125.7 0 0 9.112 98.87-43.26 170.454.01.02 18.404-55.94-11.737-149.05z" fill="#010002"/></svg>