<svg xmlns="http://www.w3.org/2000/svg" viewBox="0 0 611.999 611.999"><path d="M216.02 611.195c5.978 3.178 12.284-3.704 8.624-9.4-19.866-30.92-38.678-82.947-8.706-149.952 49.982-111.737 80.396-169.61 80.396-169.61s16.177 67.537 60.03 127.586c42.204 57.79 65.305 130.47 28.063 191.02-3.495 5.68 2.668 12.39 8.607 9.35 46.1-23.59 97.806-70.89 103.64-165.02 2.15-28.77-1.075-69.04-17.206-119.85-20.74-64.41-46.24-94.46-60.992-107.37-4.413-3.86-11.276-.44-10.914 5.41 4.3 69.493-21.845 87.13-36.726 47.385-5.943-15.875-9.41-43.33-9.41-76.767 0-55.666-16.15-112.968-51.754-159.53-9.26-12.11-20.093-23.426-32.523-33.075-4.5-3.496-11.03.016-10.62 5.7 2.73 37.734.25 145.883-94.63 275.09-86.028 119.853-52.69 211.9-40.86 236.83 22.612 47.76 54.16 75.804 84.97 92.185z"/></svg>