<svg xmlns="http://www.w3.org/2000/svg" width="533.333" height="533.333" viewBox="0 0 533.333 533.333"><path d="M165.494 533.333C129.95 459.37 148.878 416.99 176.197 377.06c29.917-43.727 37.627-87.012 37.627-87.012s23.518 30.573 14.11 78.39c41.548-46.25 49.39-119.938 43.115-148.16 93.91 65.63 134.05 207.738 79.96 313.055 287.69-162.776 71.56-406.34 33.93-433.775 12.54 27.435 14.92 73.88-10.42 96.42C331.63 33.333 225.58 0 225.58 0c12.544 83.877-45.465 175.596-101.403 244.13-1.97-33.446-4.06-56.525-21.65-88.53-3.947 60.757-50.38 110.284-62.954 171.16-17.03 82.44 12.76 142.802 125.91 206.573z"/></svg>