<svg xmlns="http://www.w3.org/2000/svg" viewBox="0 0 454.647 454.647"><path d="M250.104 139.16C219.97 46.058 262.55 0 262.55 0S122.77 67.183 81.34 248.255c-17.42-25.06-32.62-38.773-30.89-34.286 18.696 48.42-23.557 70.1-22.996 121.15.57 51.04 88.675 109.46 88.675 109.46l.02-.08a129.19 129.19 0 0 0 10.97 7.26 170.895 170.895 0 0 1-9.22-11.965c-9.55-13.63-16.26-28.01-16.414-41.87-.3-27.345 11.656-46.268 19.972-65.394 7.21-16.563 11.695-33.284 3.022-55.76-1.367-3.535 7.827 4.277 20.312 20.03 24.352-66.053 48.34-123.286 48.34-123.286s.62 89.91 31.092 147.525c28.602 54.08 26.887 81.855 26.887 81.855 52.03-49.74 69.436-128.78 69.436-128.78 18.914 16.68 29.79 37.88 35.91 59.17 12.89 44.81-13.745 89.85-14.34 94.21-.25 1.81-.714 3.5-1.104 5.234-1.82 8.177-5.098 15.485-9.61 21.915 4.886-3.11 9.52-6.53 13.98-10.15l.026.075s81.202-58.42 81.763-109.464c.56-51.04-41.69-72.727-22.996-121.157 1.62-4.194-10.737 7.48-25.63 29.5-14.743-45.48-24.19-82.238-73.464-125.7 0 0 9.112 98.87-43.26 170.455.01.02 18.404-55.938-11.737-149.05z" fill="#010002"/></svg>