<svg xmlns="http://www.w3.org/2000/svg" width="44.999" height="44.999" viewBox="0 0 44.999 44.999"><path d="M41.61 4.93A23.622 23.622 0 0 0 27.098 0C13.968 0 3.28 10.684 3.28 23.818a23.7 23.7 0 0 0 1.616 8.63c.087.23.265.188.358.157.233-.073 9.577-3.727 9.577-3.727a.274.274 0 0 0 .16-.357 12.975 12.975 0 0 1-.87-4.7c0-7.16 5.83-12.98 12.99-12.98 2.896 0 5.63.93 7.91 2.69a.29.29 0 0 0 .207.06.288.288 0 0 0 .186-.107l6.26-8.15a.285.285 0 0 0 .057-.202.286.286 0 0 0-.11-.184z"/><path d="M24.682 12.367a.274.274 0 0 0-.247-.064 11.893 11.893 0 0 0-6.57 4.138.28.28 0 0 0-.044.27c.04.09.11.16.21.18.84.19 1.67.56 2.49 1.11a.27.27 0 0 0 .16.05.28.28 0 0 0 .185-.06 13 13 0 0 1 3.873-2.32.278.278 0 0 0 .174-.31c-.184-.98-.225-1.9-.125-2.738a.28.28 0 0 0-.09-.24zm5.006 3.533c-6.447 0-11.694 4.733-11.694 10.553 0 2.59.573 5.127 1.575 6.967.94 1.743-.87 3.663-2.32 5.203-1 1.054-1.78 1.887-1.62 2.574.07.3.3.528.7.68.5.188 1.1.29 1.74.29 1.8 0 3.59-.786 4.77-2.1 1.446-1.602 2.056-3.97 1.76-6.85-.074-.735.075-1.367.41-1.737.2-.224.46-.343.75-.343 1.22 0 3.23 2.138 3.753 8.032.347 3.86 3.854 5.82 10.425 5.82 0 0 .53 0 .63-.31.143-.44-.397-.94-1.78-2.11-1.32-1.12-3.31-2.82-3.21-3.81.025-.24.183-.43.48-.596 1.02-.56 1.6-1.19 1.71-1.886.08-.545-.13-1.104-.617-1.62-.305-.318-1-.78-1.876-1.37-1.28-.86-3.585-2.407-3.726-3.178h9.55a.28.28 0 0 0 .198-.08.286.286 0 0 0 .08-.196l-.005-3.425c-.01-5.8-5.257-10.524-11.69-10.524zm-4.71 12.892c-.79 0-1.437-.644-1.437-1.435s.65-1.435 1.44-1.435a1.435 1.435 0 0 1 0 2.87zm12.83-.286h-8.45c-.666 0-1.208-.514-1.208-1.147s.542-1.15 1.207-1.15h8.45c.665 0 1.204.51 1.204 1.14s-.53 1.14-1.2 1.14z"/></svg>