<svg xmlns="http://www.w3.org/2000/svg" width="959.759" height="959.76" viewBox="0 0 959.759 959.76"><path d="M239.898 953.7l307.2-308.6c12.6-12.6 3.6-34.1-14.2-34.1h-24.5c-16.7 0-26.1-19.302-15.7-32.4l162.9-205.4c10.4-13.1 1.1-32.4-15.7-32.4h-81.9c-16.5 0-25.9-18.8-16-32L750.1 32c9.9-13.2.5-32-16-32H405c-7.6 0-14.6 4.3-17.9 11.1L226.2 336.6c-6.6 13.3 3.1 28.9 17.9 28.9h74.2c14.8 0 24.5 15.6 17.9 28.9L226.2 617c-6.6 13.3 3.1 28.9 17.9 28.9H314c14.8 0 24.4 15.4 18 28.7L207.8 930.9c-9.9 20.3 16.2 38.8 32.1 22.8z"/></svg>