<svg xmlns="http://www.w3.org/2000/svg" viewBox="0 0 489.854 489.854"><path d="M485.014 392.413c-36.617-51.59-148.913-211.11-148.913-211.11a16.17 16.17 0 0 0-11.58-6.778c-4.68-.45-9.3 1.092-12.72 4.287l-29.42 27.545-69.05-128.155a16.217 16.217 0 0 0-14.044-8.512c-5.78-.26-11.345 3.03-14.272 8.125L2.15 395.902a16.257 16.257 0 0 0 .017 16.192c2.91 5 8.26 8.085 14.034 8.085h457.14c.11-.02.22-.01.32 0 8.96 0 16.2-7.26 16.2-16.2 0-4.54-2.412-8.15-4.84-11.57zm-195.84-148.03l31.17-29.196 61.973 87.856-52.577-54.766a4.622 4.622 0 0 0-3.26-1.4 4.607 4.607 0 0 0-3.256 1.337l-37.5 37.45a4.54 4.54 0 0 1-4.967.98 4.52 4.52 0 0 1-2.8-4.216l.143-34.056c4.05 0 8.037-1.162 11.075-3.988zm-90.58-125.188l40.203 74.59-30.19 26.63a4.542 4.542 0 0 1-6.58-.594l-19.35-24.55a4.554 4.554 0 0 0-7.434.4l-29.255 46.65a4.565 4.565 0 0 1-8.1-.742l-3.924-9.936 64.63-112.437z"/></svg>