<svg xmlns="http://www.w3.org/2000/svg" viewBox="0 0 50.463 50.463"><path d="M47.923 29.694c.02-.6-.516-1.063-.9-1.515-.677-2.734-2.017-5.865-3.962-8.972C39.943 14.23 31.69 6.204 28.554 4.966a2.797 2.797 0 0 0-.43-.126c-.312-1.013-.478-1.708-1.697-2.52-3.354-2.237-7.1-2.867-9.578-1.844-2.48 1.023-3.86 6.687-1.19 8.625 2.546 1.858 7.583-1.887 9.195.51 1.61 2.396 3.386 10.374 6.338 15.473a17 17 0 0 0-2.306-.156c-3.406 0-6.467.998-8.63 2.593-1.85-2.887-5.08-4.806-8.764-4.806-3.82 0-7.14 2.064-8.95 5.13v22.62h4.88l1.04-1.85c3.355-1.287 7.32-4.607 10.077-8.147 11.014 4.322 29.14-3.678 29.386-10.773z" fill="#010002"/></svg>