<svg xmlns="http://www.w3.org/2000/svg" viewBox="0 0 50.463 50.463"><path d="M47.923 29.694c.02-.6-.516-1.063-.9-1.515-.677-2.736-2.017-5.867-3.962-8.974-3.116-4.977-11.37-13.003-14.505-14.24a2.797 2.797 0 0 0-.43-.127c-.312-1.014-.478-1.71-1.697-2.52C23.073.082 19.328-.548 16.85.475 14.37 1.5 12.99 7.163 15.66 9.1c2.545 1.86 7.582-1.886 9.194.51 1.61 2.397 3.386 10.375 6.338 15.474a17 17 0 0 0-2.306-.156c-3.406 0-6.467.998-8.63 2.593-1.85-2.885-5.08-4.804-8.764-4.804-3.82 0-7.14 2.064-8.95 5.13v22.62h4.88l1.04-1.85c3.355-1.287 7.32-4.607 10.077-8.147 11.012 4.32 29.14-3.68 29.384-10.774z" fill="#010002"/></svg>