<svg xmlns="http://www.w3.org/2000/svg" viewBox="0 0 17.566 17.566"><path d="M16.544 9.72c-.07-.19-.05-.11-.18-.264-.23-.926-.182-1.986-.84-3.037-1.057-1.687-3.854-4.407-4.914-4.826a1.187 1.187 0 0 0-.146-.043c-.035-.262-.184-.504-.535-.67C8.842.37 7.585-.21 6.894.074c-.394.163-.706-.16-.833.22-.08.24-.512.695-.42 1.217.026.15.313.823.64 1.015.053.154-.415-.11-.14.467s2.718-.44 3.214.172c.545.813.646 3.514 1.646 5.24-.172-.022-1.193-1.54-2.963-1.113C6.27 7.72 5.8 9.23 5.8 9.23 4.1 7.648 1.295 8.744.912 10.28l.01 7.288 1.728-.03.654-1.158c1.137-.437 2.03-2.312 2.964-3.51 1.265.185 3.196-.163 3.953-.257.693-.085 3.33-.834 4.08-1.11 1.754-.64 2.688-.568 2.244-1.78z" fill="#262626"/></svg>