<svg xmlns="http://www.w3.org/2000/svg" viewBox="0 0 17.566 17.566"><path d="M16.544 9.72c-.07-.19-.05-.11-.18-.264-.23-.926-.182-1.986-.84-3.037-1.057-1.69-3.854-4.41-4.914-4.828a1.187 1.187 0 0 0-.146-.043c-.035-.263-.184-.505-.535-.67C8.84.37 7.583-.21 6.892.073c-.394.163-.706-.16-.833.22-.08.24-.51.695-.42 1.217.027.15.314.825.64 1.017.054.154-.414-.11-.14.467s2.72-.44 3.215.172C9.9 3.978 10 6.68 11 8.406c-.17-.023-1.192-1.54-2.962-1.114C6.27 7.72 5.8 9.23 5.8 9.23 4.1 7.648 1.295 8.744.912 10.28l.01 7.288 1.728-.03.654-1.158c1.137-.437 2.03-2.312 2.964-3.51 1.265.185 3.196-.163 3.953-.257.695-.085 3.33-.834 4.08-1.11 1.756-.64 2.69-.568 2.246-1.78z" fill="#262626"/></svg>