<svg xmlns="http://www.w3.org/2000/svg" viewBox="0 0 472.815 472.815"><path d="M463.636 277.77c-1.447-3.83-1.886-4.73-3.707-6.454-.342-.333-.814-.78-1.49-1.536-1.763-7.364-2.933-15.144-4.08-22.654-3.113-20.533-6.373-41.765-19.964-63.476C404.873 136.53 324.36 57.698 293.12 45.35c-.617-.21-1.218-.43-1.795-.593-2.057-8.51-7.803-15.07-17.135-19.484C250.228 14.006 220.388 0 198.733 0c-5.25 0-9.925.837-13.9 2.47-1.6.668-3.577 1-6.023 1-1.504 0-2.975-.13-4.357-.284-1.57-.187-3.064-.333-4.422-.333-5.673 0-9.347 2.796-11.28 8.535-.49 1.447-1.773 3.6-3.358 6.26-4.576 7.656-10.852 18.126-8.714 30.392.667 3.877 6.568 18.452 14.47 27.01-.765.57-1.375 1.293-1.854 2.14-1.772 3.153-1.203 7.43 1.91 13.9 3.316 6.95 12.144 7.762 18.476 7.762 7.852 0 17.436-1.423 27.727-2.96 10.323-1.543 21.012-3.153 29.726-3.153 10.08 0 13.916 2.137 15.29 3.803 6.21 9.25 10.46 28.938 15.452 52.03s11.087 51.39 21.256 76.01c-16.963-13.744-34.27-20.434-52.697-20.434-6.096 0-12.347.755-18.574 2.26-40.522 9.77-57.917 38.024-64.12 51.672-15.41-12.364-34.4-18.883-55.046-18.883-39.692 0-78.14 24.67-85.7 55.054-.967 4.51-22.76 110.906 14.77 157.223 11.46 14.152 27.263 21.338 46.943 21.338 3.47 0 7.113-.21 11.104-.732l1.212-.39c75.67-38.302 76.32-56.16 77.05-75.076.26-7.43.52-14.453 6.788-23.394 6.438.78 13.794 1.187 21.817 1.187 26.263 0 55.77-4.21 75.384-6.982 5.13-.74 9.593-1.374 13.13-1.813 19.63-2.44 94.193-23.524 116.35-31.67 10.422-3.82 19.762-6.713 27.996-9.29 20.492-6.357 34.05-10.583 39.31-21.167 3.203-6.462 2.813-14.63-1.21-25.718z" fill="#010002"/></svg>