<svg xmlns="http://www.w3.org/2000/svg" viewBox="0 0 233.61 233.61"><g fill="#010002"><path d="M159.34 104.337c0 20.616-8.108 39.96-22.727 55.205-4.17 4.356-3.11 7.787 2.912 7.345 17.035-1.265 33.134-7.966 45.51-20.347 15.06-15.06 21.76-35.628 20.43-56.69-.382-6.028-6.212-11.85-12.238-12.227-8.992-.56-17.89.346-26.314 2.74-5.818 1.652-8.998 8.192-8.252 13.782.454 3.354.68 6.755.68 10.192z"/><path d="M228.425 131.272a82.693 82.693 0 0 0-8.706-5.507c-5.306-2.9-11.362.137-13.987 5.573a76.704 76.704 0 0 1-14.93 21.015c-14.797 14.804-35.114 23.002-57.22 23.002-.49 0-.98-.006-1.48-.024-.818-.023 2.648 2.614 8.168 5.085 13.82 6.17 29.137 8.14 44.377 4.708 20.783-4.672 37.436-18.467 47.574-36.977 2.9-5.305 1.086-13.336-3.795-16.874zM100.024 175.355c-22.095 0-42.418-8.204-57.222-23.002a77.168 77.168 0 0 1-14.923-21.015c-2.626-5.436-8.7-8.48-13.993-5.58a81.022 81.022 0 0 0-8.7 5.514c-4.887 3.544-6.695 11.57-3.795 16.874 10.126 18.52 26.785 32.317 47.568 36.983 15.233 3.43 30.55 1.46 44.376-4.71 5.513-2.463 8.98-5.095 8.163-5.083-.498.012-.987.018-1.476.018z"/><path d="M94.248 166.894c6.027.43 7.083-3.02 2.906-7.375-14.595-15.24-22.71-34.573-22.71-55.19 0-3.424.227-6.813.668-10.15.74-5.572-2.44-12.106-8.246-13.77-8.48-2.435-17.44-3.36-26.505-2.793-6.026.376-11.843 6.2-12.225 12.226-1.33 21.063 5.37 41.625 20.43 56.685 12.424 12.424 28.588 19.143 45.683 20.366z"/><path d="M125.544 49.8c-4.53-3.992-12.77-3.992-17.298 0-15.836 13.95-25.64 33.224-25.64 54.53 0 21.303 9.804 40.588 25.64 54.538 4.53 3.986 12.77 3.986 17.298 0 15.836-13.95 25.64-33.23 25.64-54.537 0-21.3-9.804-40.58-25.64-54.53z"/></g></svg>