<svg xmlns="http://www.w3.org/2000/svg" viewBox="0 0 233.61 233.61"><g fill="#010002"><path d="M159.34 104.337c0 20.616-8.108 39.96-22.727 55.205-4.17 4.356-3.11 7.787 2.912 7.345 17.035-1.265 33.134-7.966 45.51-20.347 15.06-15.06 21.76-35.628 20.43-56.69-.382-6.028-6.212-11.85-12.238-12.227-8.992-.56-17.89.346-26.314 2.74-5.818 1.652-8.998 8.192-8.252 13.782.455 3.354.68 6.755.68 10.192z"/><path d="M228.425 131.272a82.693 82.693 0 0 0-8.706-5.507c-5.307-2.9-11.363.137-13.988 5.573a76.704 76.704 0 0 1-14.93 21.015c-14.797 14.804-35.114 23.002-57.22 23.002-.49 0-.98-.006-1.48-.024-.818-.022 2.648 2.615 8.168 5.086 13.82 6.17 29.137 8.14 44.377 4.708 20.783-4.672 37.436-18.467 47.574-36.977 2.9-5.305 1.087-13.336-3.794-16.874zm-128.4 44.083c-22.096 0-42.42-8.204-57.223-23.002a77.168 77.168 0 0 1-14.923-21.015c-2.627-5.436-8.7-8.48-13.994-5.58a81.022 81.022 0 0 0-8.7 5.514C.3 134.816-1.51 142.842 1.39 148.146c10.127 18.52 26.786 32.317 47.57 36.983 15.232 3.43 30.55 1.46 44.375-4.71 5.513-2.464 8.98-5.096 8.163-5.084a61.09 61.09 0 0 1-1.476.018z"/><path d="M94.248 166.894c6.027.43 7.083-3.02 2.906-7.375-14.595-15.24-22.71-34.574-22.71-55.19 0-3.425.227-6.814.668-10.15.74-5.573-2.44-12.107-8.246-13.77-8.48-2.436-17.44-3.36-26.505-2.794-6.025.376-11.842 6.2-12.224 12.226-1.33 21.063 5.37 41.625 20.43 56.685C60.99 158.95 77.154 165.67 94.25 166.893z"/><path d="M125.544 49.8c-4.53-3.992-12.77-3.992-17.298 0-15.836 13.95-25.64 33.224-25.64 54.53 0 21.303 9.804 40.588 25.64 54.538 4.53 3.986 12.77 3.986 17.298 0 15.836-13.95 25.64-33.23 25.64-54.537 0-21.3-9.804-40.58-25.64-54.53z"/></g></svg>