<svg xmlns="http://www.w3.org/2000/svg" viewBox="0 0 200 200"><path d="M100 59.725l34.88 20.138v40.275l-34.763 20.07c-.04 0-.077-.012-.117-.012s-.077.01-.117.012l-34.763-20.07V79.862L100 59.725zM187.138 52v96a4 4 0 0 1-2 3.464l-83.14 48a4.002 4.002 0 0 1-4 0l-83.137-48a4 4 0 0 1-2-3.464V52a4 4 0 0 1 2-3.464L98 .536a3.998 3.998 0 0 1 4 0l83.14 48c1.235.714 1.998 2.035 1.998 3.464zm-44.26 68.138V79.862l35.673-20.595a4 4 0 1 0-4-6.928l-35.67 20.594L104 52.796V10.998a4 4 0 0 0-8 0v41.798L61.12 72.934 25.45 52.34a4 4 0 1 0-4 6.928L57.12 79.86v40.276l-35.67 20.595a4 4 0 1 0 4 6.928l35.67-20.594L96 147.204v41.1a4 4 0 0 0 8 0v-41.1l34.88-20.138 35.672 20.595a3.998 3.998 0 0 0 5.464-1.464 4 4 0 0 0-1.464-5.463l-35.673-20.595z"/></svg>