<svg xmlns="http://www.w3.org/2000/svg" viewBox="0 0 340 340"><path d="M312.69 44.163s2.623 28.98-22.534 54.486c8.43 21.21 12.814 43.4 12.814 65.45 0 31.253-9.062 53.974-26.145 67.032 30.06 1.66 50.362-17.138 59.236-56.6 16.327-72.563-23.37-130.37-23.37-130.37z"/><path d="M250.49 155.097c0 23.308-8.23 45.275-23.176 61.855a83.56 83.56 0 0 1-12.093 11.044c6.028 3.387 12.298 5.37 18.486 5.37 38.252 0 58.608-23.176 58.608-69.266 0-74.378-51.417-122.064-51.417-122.064s8.292 25.716-8.054 54.792c11.72 25.093 17.647 44.62 17.647 58.27zM63.175 231.133C46.092 218.075 37.03 195.355 37.03 164.1c0-22.05 4.385-44.24 12.814-65.45-25.155-25.508-22.53-54.487-22.53-54.487s-39.7 57.807-23.375 130.37c8.872 39.462 29.173 58.26 59.234 56.6z"/><path d="M106.295 233.365c6.188 0 12.458-1.982 18.484-5.37a83.56 83.56 0 0 1-12.095-11.043c-14.945-16.58-23.175-38.547-23.175-61.855 0-13.648 5.927-33.176 17.647-58.27-16.345-29.075-8.054-54.79-8.054-54.79S47.687 89.72 47.687 164.1c0 46.09 20.356 69.265 58.608 69.265zm102.707 7.722c-9.992 6.173-23.776 9.99-39.002 9.99-15.226 0-29.012-3.816-39.004-9.99-10.025 6.195-16.232 14.76-16.232 24.227 0 18.895 55.236 64.53 55.236 64.53s55.236-45.636 55.236-64.53c0-9.467-6.207-18.033-16.234-24.227zm-100.298 4.087c-.476-.408-.97-.8-1.472-1.184-6.047-4.617-14.016-7.428-22.754-7.428-2.652 0-5.83.578-9.336 1.57-21.47 6.08-55.194 27.736-55.194 27.736s45.636 29.305 64.53 29.305c9.465 0 18.032-3.293 24.227-8.613-6.173-5.3-9.988-12.615-9.988-20.69 0-8.08 3.814-15.395 9.987-20.696zm146.818-8.612c-8.738 0-16.707 2.81-22.754 7.428a33.4 33.4 0 0 0-1.472 1.184c6.173 5.3 9.988 12.616 9.988 20.694 0 8.077-3.815 15.39-9.988 20.69 6.194 5.32 14.762 8.614 24.227 8.614 18.895 0 64.53-29.305 64.53-29.305s-33.725-21.657-55.194-27.736c-3.508-.99-6.687-1.567-9.34-1.567z"/><path d="M170 231.944c38.252 0 69.265-34.404 69.265-76.848 0-42.44-69.265-144.94-69.265-144.94s-69.265 102.5-69.265 144.94c0 42.445 31.013 76.848 69.265 76.848z"/></svg>