<svg xmlns="http://www.w3.org/2000/svg" viewBox="0 0 457.378 457.378"><path d="M78.856 208.152c3.542-1.944 7.19-3.746 11.003-5.337 15.1-6.29 32.063-9.488 50.394-9.488 10.17 0 20.056 1.014 29.424 2.575l-56.05-37.98 91.613 46.942a253.12 253.12 0 0 1 16.746 6.343l.06-.166c-5.997-23.927-23.275-75.6-64.672-100.114-20.312-12.024-43.58-15.808-64.83-15.808-36.164 0-66.49 10.96-66.49 10.96s10.346 65.46 52.8 102.075z"/><path d="M107.582 281.036l60.732-29.775c13.91-13.607 27.675-23.546 36.488-29.272-16.236-5.886-39.708-12.37-64.554-12.37-14.66 0-29.792 2.252-44.128 8.233-58.87 24.524-82.477 102.31-82.477 102.31s41.088 21.745 86.575 21.745c7.02 0 14.148-.556 21.243-1.756.346-3.64.75-7.29 1.45-10.96 4.87-25.65 18.194-47.5 33.208-64.98l-48.535 16.827z"/><path d="M197.97 357.403l15.492-121.606c-19.268 12.587-65.197 47.17-74.558 96.43-11.904 62.654 40.084 125.15 40.084 125.15s69.11-38.02 82.5-99.08c-26.2-27.997-36.25-65.85-39.965-93.632l-23.553 92.738zm165.367-97.353c-2.117-1.915-4.427-3.476-6.666-5.188-12.63 3.814-26.29 5.855-40.943 5.855-15.403 0-29.995-2.2-42.898-5.052l58.473 60.02-83.26-66.843c-4.68-1.568-8.878-3.07-12.084-4.347 1.41 25.694 8.623 77.148 43.01 108.397 30.57 27.772 75.082 32.667 102.66 32.667 15.006 0 24.996-1.45 24.996-1.45s3.904-81.187-43.288-124.06zm-11.845-88.438l-94.997 51.507a178.66 178.66 0 0 1-10.688 7.684c14.45 5.426 40.954 13.63 69.92 13.63 16.536 0 33.776-2.702 49.81-10.17 57.812-26.917 78.198-105.618 78.198-105.618s-38.273-18.277-81.313-18.277c-16.22.007-33.096 2.664-48.873 9.802-1.37 34.002-15.89 60.19-31.82 78.89l69.76-27.45z"/><path d="M229.58 180.53l4.803-78.77 4.375 71.578s.007-.008.007-.016l-.24 7.86-.675 34.752C283.832 184.09 344.77 99.134 234.383 0c0 0-53.76 44.398-61.664 101.647 29.663 20.666 47.115 52.97 56.86 78.883z"/></svg>