<svg xmlns="http://www.w3.org/2000/svg" viewBox="0 0 206.274 206.274"><path d="M162.298 122.226c-4.112-1.02-8.43-1.876-12.896-2.605 6.068-1.4 11.726-3.14 16.807-5.22 15.86-6.47 24.6-15.52 24.6-25.48 0-16.28-13.57-33.57-50.608-36.68 21.86-3.47 39.71-11.013 39.71-24.43.01-24.93-30.25-27.81-53.01-27.81-36.48 0-80.54 15.13-80.54 33.917 0 17.022 20.023 20.123 49.636 20.61-32.166 5.286-64.22 17.753-64.22 34.39 0 9.96 8.74 19.013 24.61 25.486a97.16 97.16 0 0 0 6.22 2.28C18.12 121.36 1.7 142.54 1.7 162.53c0 24.532 44.558 43.75 101.44 43.75 32.64 0 54.272-2.3 70.137-7.46 20.77-6.754 31.303-18.963 31.303-36.29 0-19.788-14.225-33.346-42.28-40.3zM60.08 135.636c-6.975.752-26.425 4.374-32.586 11.987a3.992 3.992 0 0 1-3.112 1.484 4 4 0 0 1-3.107-6.516c9.338-11.54 35.05-14.6 37.95-14.91a4 4 0 1 1 .855 7.96zM88.692 75.05c-.23.045-23.024 4.47-33.558 12.676-.73.57-1.596.845-2.456.845a4 4 0 0 1-2.46-7.15c12.06-9.392 35.965-14.03 36.977-14.22a4 4 0 0 1 1.497 7.86zm7.295-54.842c-.197.038-19.79 3.842-28.796 10.86a3.985 3.985 0 0 1-2.45.844 4 4 0 0 1-2.46-7.156c10.53-8.206 31.33-12.24 32.21-12.406a4 4 0 0 1 1.5 7.857z"/></svg>