<svg xmlns="http://www.w3.org/2000/svg" viewBox="0 0 16.925 16.925"><path d="M16.922 7.847c-.053-.615-.314-1.282-.685-1.958-.4-.73-2.364-3.32-2.733-3.81-.55-.73-.912-1.29-.813-1.57.15-.41-1.48-.23-3.25.08-.68.12-1.97-.22-1.73.69.25.913-2.51.184-2.51.184s-3.1.937-2.54 1.5C3 3.324-.03 7 0 7.844c.077 2.31 1.64 5.55 1.696 4.86s1.7 1.65 2.535 2.47c.96.933 5.78.734 5.7 1.306-.08.574 3.42-.49 2.77-1.304-.73-.922 2.5-2.967 2-3.6s2.34-2.48 2.238-3.727zM2.966 10.45a.484.484 0 1 1 0-.97.484.484 0 0 1 0 .97zm3.915-.893a.807.807 0 1 1 0-1.613.807.807 0 0 1 0 1.613zM5.86 6.313c-.533.638-1.294.88-1.7.54-.408-.34-.306-1.132.226-1.77.534-.638 1.296-.88 1.703-.54s.3 1.132-.23 1.77zm3.806 8.19a1.42 1.42 0 1 1 0-2.84 1.42 1.42 0 0 1 0 2.84zm4.06-6.957a.592.592 0 1 1 0 1.183.592.592 0 0 1 0-1.19zm-3.407-2.13c0-.598.63-1.084 1.42-1.084.78 0 1.42.486 1.42 1.085S12.51 6.5 11.73 6.5c-.785.002-1.42-.484-1.42-1.083z" fill="#030104"/></svg>