<svg xmlns="http://www.w3.org/2000/svg" width="737.408" height="737.407" viewBox="0 0 737.408 737.407"><path d="M674.417 123.507c-.224-9.76-7.216-18.177-16.982-19.51-45.52-6.253-90.416-17.13-134.426-33.25-43.81-16.04-92.27-38.435-144.54-67.93-6.64-3.746-12.88-3.77-19.51 0-51.92 29.48-100.03 51.827-144.18 67.93-44.03 16.06-88.9 27.005-134.06 33.25-9.77 1.348-16.62 9.75-17.71 19.51-4.33 185.366 36.27 337.036 121.41 454.933 46.38 64.23 104.43 116.35 174.523 156.1 5.42 3.98 13.915 3.68 20.235 0 69.566-40.41 127.536-92.16 173.81-156.09 85.26-117.82 125.53-269.56 121.415-454.934zM520.48 555.677c-40.225 55.564-90.694 101.895-151.762 139.112-61.07-37.22-111.777-83.38-151.763-139.12-77.458-107.96-115.27-246.08-113.828-414.47 42.637-6.87 84.92-18.43 127.195-33.97C272.597 91.7 318.85 70.37 368.718 43.28c49.868 27.092 95.757 48.42 138.033 63.95 42.28 15.54 84.92 27.102 127.56 33.97 1.44 169.47-36.61 307.78-113.83 414.462z"/></svg>