<svg xmlns="http://www.w3.org/2000/svg" viewBox="0 0 474 474"><path d="M421.52 160c2.666-34 13-65 31-93l-69-67c-22 18.667-47 28.667-75 30-26 2.667-50.334-2-73-14-23.335 11.333-47.668 16-73 14-26.668-2-50.334-11-71-27l-69 66c16.666 29.333 26 59.667 28 91 .666 14.667-3.668 35-13 61-5.334 14-9.334 26.333-12 37-2 10.667-3.334 19-4 25-.668 27.333 7.332 52 24 74 12.666 16.667 34 34.667 64 54 32 16 56.666 26 74 30 2 .667 4.5 1.833 7.5 3.5s5.5 2.833 7.5 3.5l14 6c11.332 6.667 19 13.333 23 20 4.666-7.333 12.332-14 23-20 8.666-3.333 15-6 19-8 6.666-2.667 10.332-4.333 11-5 4-1.333 9-3.333 15-6l22-8c16.666-5.333 29-10.667 37-16 28.666-19.333 49.666-37 63-53 16.666-22 25-47 25-75-1.334-12.667-7-32.667-17-60-9.334-27.333-13.334-48.333-12-63z" fill="#010002"/></svg>