<svg xmlns="http://www.w3.org/2000/svg" viewBox="0 0 194.291 194.291"><path d="M157.208 119.194l-37.213 13.072-6.87-15.424a6.002 6.002 0 0 0-8.345-2.832l-55.47 30.136a6.002 6.002 0 0 0-1.75 9.11c12.812 15.41 28.427 28.912 46.41 40.126a5.995 5.995 0 0 0 6.35 0c27.3-17.022 48.86-39.072 64.08-65.535a6.003 6.003 0 0 0-7.192-8.653zm-60.062 61.984c-13.4-8.714-25.318-18.794-35.543-30.054l43.202-23.47 6.478 14.547a6 6 0 0 0 7.47 3.22l25.92-9.1c-12.57 17.45-28.492 32.49-47.527 44.86z"/><path d="M188.493 32.878a6 6 0 0 0-4.346-1.863h-.14c-6.42 0-12.408-2.564-16.868-7.23-4.53-4.734-6.85-10.946-6.53-17.49A5.995 5.995 0 0 0 154.62 0H39.67a6 6 0 0 0-5.993 6.295c.323 6.544-1.993 12.756-6.52 17.492-4.46 4.664-10.448 7.23-16.87 7.23h-.11A5.91 5.91 0 0 0 5.8 32.88a6 6 0 0 0-1.647 4.46c1.33 24.61 7.598 61.316 29.918 96.413a5.997 5.997 0 0 0 7.93 2.053l73.94-40.166 8.09 19.69a6 6 0 0 0 7.51 3.39l41.6-14.36a6 6 0 0 0 3.64-3.515c7.67-19.908 12.17-41.276 13.37-63.51a6.01 6.01 0 0 0-1.64-4.46zm-21.943 61.06l-33.582 11.594-8.473-20.635a6 6 0 0 0-8.415-2.994l-74.808 40.64C24.276 93.75 18.327 64.19 16.532 42.47c7.32-1.295 14.016-4.87 19.293-10.39 5.268-5.508 8.61-12.596 9.582-20.08h103.478c.973 7.484 4.313 14.572 9.582 20.08 5.278 5.52 11.974 9.096 19.297 10.39-1.47 17.94-5.23 35.214-11.214 51.468z"/></svg>