<svg xmlns="http://www.w3.org/2000/svg" width="29.904" height="29.904" viewBox="0 0 29.904 29.904"><path d="M28.405 14.7c-.48 0-.897.228-1.172.576-1.56-1.127-4.992-2.994-7.975-.27 0 0-3.02-4.17-.982-7.57.246.178.547.286.875.286a1.5 1.5 0 1 0-1.5-1.5c0 .168.03.327.088.478-2.14.82-5.836 2.858-6.39 7.307 0 0-3.43-4.54-8.573-1.594a1.495 1.495 0 0 0-1.27-.71 1.5 1.5 0 1 0 1.5 1.5c0-.048-.01-.092-.014-.138 1.794.14 4.67 1.726 5.46 10.15l.09.69c0 .706 2.86 1.278 6.383 1.278 3.526 0 6.383-.574 6.383-1.28 0 0 .23-5.78 5.612-7.622a1.495 1.495 0 0 0 2.99-.07 1.495 1.495 0 0 0-1.497-1.505z"/></svg>