<svg xmlns="http://www.w3.org/2000/svg" viewBox="0 0 16.079 16.079"><path d="M14.935 2.295c-.63 0-1.144.548-1.144 1.25 0 .025.01.05.01.074-3.022.452-4.85 2-5.954 3.6-1.09-1.37-2.823-2.608-5.568-2.89-.067-.63-.545-1.1-1.13-1.1C.518 3.23 0 3.78 0 4.48s.512 1.267 1.144 1.267c.33 0 .624-.156.833-.402 1.44 1.425 2.127 2.745 1.98 3.823-.17 1.268-1.447 1.922-1.474 1.934a.548.548 0 0 0-.275.596c.006.03 0 .137 0 .164 0 1.063 2.72 1.922 6.076 1.922s6.076-.86 6.076-1.922c0-.014.03-.146.042-.205.052-.27-.074-.543-.302-.656-.015-.003-1.432-.72-1.623-2.124-.157-1.166.57-2.59 2.104-4.128.117.04.23.068.36.068.63 0 1.143-.568 1.143-1.27S15.57 2.3 14.94 2.3zm-3.5 6.762c.11.795.462 1.422.855 1.893H9.562a9.314 9.314 0 0 0-1.07-2.78c.816-1.28 2.158-2.565 4.37-3.167-1.124 1.43-1.603 2.787-1.427 4.054z" fill="#030104"/></svg>