<svg xmlns="http://www.w3.org/2000/svg" width="983" height="983" viewBox="0 0 983 983"><path d="M937.8 702.95c-4.4-3.2-10.4 1.3-8.5 6.4 2.2 6 3.4 12.1 3.4 18.3 0 81.3-197.5 147.1-441.2 147.1s-441.2-65.8-441.2-147c0-6.2 1.1-12.3 3.4-18.3 1.9-5.1-4-9.6-8.5-6.4-29 20.9-45.2 44.2-45.2 68.7 0 90.5 220 163.8 491.5 163.8S983 862.25 983 771.75c0-24.6-16.2-47.9-45.2-68.8z"/><path d="M811.6 674.15c4.3 6.1 6.6 12.4 6.6 18.8 0 51.8-146.3 93.8-326.7 93.8s-326.7-42-326.7-93.8c0-6.4 2.3-12.7 6.6-18.8 3.3-4.7-1.8-10.7-7-8.2-34.6 16.5-54.5 35.8-54.5 56.4 0 60.5 170.8 109.5 381.5 109.5s381.5-49 381.5-109.5c0-20.6-19.9-39.9-54.5-56.4-5-2.5-10.1 3.5-6.8 8.2z"/><path d="M259.5 670.55c-3.2 1.8-4.7 5.6-3.6 9 11.6 34.5 112.6 61.4 235.6 61.4 122.9 0 223.8-26.9 235.6-61.2 1.2-3.5-.4-7.4-3.7-9.1-28-14.7-191.2-69-225.9-354 21.9-3 38.9-21.7 38.9-44.5 0-24.8-20.1-44.9-44.9-44.9s-44.9 20.1-44.9 44.9c0 22.9 17.102 41.7 39.2 44.5-34.2 286.2-199.6 339.2-226.3 353.9zm297-558c0-35.9-29.1-65.1-65.1-65.1-35.9 0-65.1 29.1-65.1 65.1s29.1 65.1 65.1 65.1c36-.1 65.1-29.2 65.1-65.1zm-85.5 3c-10.8 0-19.8-9-19.8-19.8s9-19.8 19.8-19.8 19.8 9 19.8 19.8-9 19.8-19.8 19.8z"/></svg>