<svg xmlns="http://www.w3.org/2000/svg" width="961.801" height="961.801" viewBox="0 0 961.801 961.801"><path d="M825.4 503.05c0 1.8.1 3.6.1 5.2 0 13.8-3.9 27.3-11.7 40.2-6.8 11.2-16.5 22-29 32-22.4 18-53.8 33.9-93.2 47.2-78 26.4-181.1 41-290.5 41-107.9 0-191.5-14.2-248.3-42.3-9.6-4.7-18.4-9.9-26.4-15.4C49.9 652.75 0 695.75 0 728.25c0 90 215.3 163.1 480.9 163.1s480.9-73 480.9-163.1c0-64.6-24.6-170.5-136.4-225.2zm-82.8 305.3c-95.7 21.8-178.5 16.5-185-11.8-6.4-28.3 119.4-113.1 215.1-134.9 95.7-21.8 125.102 27.8 131.5 56 6.5 28.4-65.9 69-161.6 90.7z"/><path d="M151.8 597.65c48.9 28.2 129.6 46.1 249.2 46.1 220.6 0 399.4-60.7 399.4-135.5 0-5.1-.2-10.5-.6-16.2-2.7-36.7-15-83.6-49.2-122.8-60.6 20-137.5 30.9-218.5 30.9-87.6 0-170.3-12.8-233-35.9-9.6-3.5-18.6-7.3-27-11.2-105.4 47.5-180.2 112.3-180.2 155.202 0 34.198 18.6 65.5 59.9 89.397zm491.5-148.5c55.5-12.6 82.1 6.4 93.9 26 3.8 6.3 6.1 12.7 7.3 18.1 5 22.1-50.5 53.5-123.9 70.2s-137.1 12.4-142.1-9.7c-3.7-16.2 47.4-56.1 103.9-82.7 20.3-9.7 41.4-17.5 60.9-21.9z"/><path d="M272.8 325.45c4.7 2.5 9.7 4.9 14.9 7.2 5.3 2.4 10.8 4.6 16.5 6.8 57.7 22 138.4 35.7 227.8 35.7 75.1 0 144.1-9.7 198.4-25.8 4.7-1.4 9.4-2.9 13.9-4.4s8.898-3.1 13.2-4.7c56.698-21.2 91.6-50.3 91.6-82.5 0-64.8-252.5-187.3-427.7-187.3s-206.5 122.6-206.5 187.4c0 25.2 21.5 48.5 57.9 67.6zm333-54c3-16.4 14.4-33.9 45.3-42 12.3-3.2 26.5-4.6 41-4.6 43.2 0 88.8 12.4 92.3 26 4.5 17.4-28.3 41.1-74.2 54.2-2 .6-4 1.1-6 1.6-4.2 1.1-8.3 2-12.3 2.9-8 1.6-15.8 2.8-23.1 3.5-5.9.6-11.6.9-17 .9-24.4 0-42-6-44.8-17.1v-.1c-.9-3.7-1.7-8.1-1.9-12.9-.3-3.9-.1-8.1.7-12.4z"/></svg>