<svg xmlns="http://www.w3.org/2000/svg" width="332.441" height="332.44" viewBox="0 0 332.441 332.44"><path d="M260.777 217.262l-49.705 49.705a1.703 1.703 0 0 0 0 2.398l14.825 14.824a1.705 1.705 0 0 0 2.396 0l7.603-7.61a1.7 1.7 0 0 1 2.395 0l40.52 40.51c20.32 20.32 21.56 19.09 36.38 4.27s16.06-16.06-4.27-36.38l-40.51-40.51a1.697 1.697 0 0 1 0-2.39l7.6-7.6a1.7 1.7 0 0 0 0-2.4l-14.82-14.83a1.71 1.71 0 0 0-2.4 0zm37.885 73.357l-14.24 14.24a4.715 4.715 0 0 1-6.665-6.67l14.24-14.24a4.713 4.713 0 0 1 6.665 6.66zm-20.492-20.5l-14.24 14.24a4.714 4.714 0 0 1-6.67-6.67l14.24-14.24a4.71 4.71 0 0 1 6.664 0 4.71 4.71 0 0 1 0 6.66zm-72.43-80.53c-10.2 8.84-19.13 16.23-28.6 23.86-.47.38-1.22 1.32-.27 2.02 16.28 12.84 28.102 21.56 33.934 25.82 2.174 1.593 3.363 2.433 4.822.976l19.577-19.58c1.463-1.46 1.084-2.673-.316-4.187-4.26-4.603-14.407-15.563-26.838-28.983-.33-.36-1.01-1.06-2.32.07zm-79.98-18.89a54124.383 54124.383 0 0 1 31.522-34c.535-.71.053-1.87-.364-2.32a11314.128 11314.128 0 0 0-20.92-22.48C110.686 84.8 45.448 2.47 45.448 2.47s-4.55-6.024-6.226.737c-2.78 11.213-7.844 37.06 4.22 72.38 9.19 26.9 43.863 63.052 79.582 94.942.53.47 1.714 1.04 2.74.17zM293.212 3.21c-1.675-6.763-6.225-.737-6.225-.737s-65.236 82.33-90.552 109.436c-22.774 24.38-86.35 93.05-98.892 106.6-1.4 1.51-1.778 2.73-.317 4.19l19.58 19.58c1.457 1.45 2.65.61 4.822-.98 22.286-16.31 148.5-110.5 167.362-165.72 12.068-35.32 7.004-61.17 4.224-72.38zM69.267 217.262L54.44 232.09a1.7 1.7 0 0 0 0 2.396l7.6 7.602c.66.658.656 1.734-.002 2.394l-40.51 40.51c-20.323 20.325-19.09 21.558-4.267 36.38 14.83 14.82 16.06 16.055 36.38-4.27l40.51-40.51a1.7 1.7 0 0 1 2.4 0l7.6 7.603a1.705 1.705 0 0 0 2.4 0l14.83-14.824a1.7 1.7 0 0 0 0-2.39l-49.72-49.71a1.694 1.694 0 0 0-2.39-.003zm-35.49 66.69a4.714 4.714 0 0 1 6.667 0l14.24 14.24a4.715 4.715 0 0 1-6.664 6.668l-14.24-14.24a4.715 4.715 0 0 1 0-6.667zm20.493-20.49a4.714 4.714 0 0 1 6.666 0l14.24 14.24a4.714 4.714 0 0 1-6.665 6.667l-14.24-14.25a4.71 4.71 0 0 1 0-6.67z"/></svg>