<svg xmlns="http://www.w3.org/2000/svg" width="383.344" height="383.345" viewBox="0 0 383.344 383.345"><path d="M273.217 106.9C246.037 62.034 215.804 23.205 200.2 4.052a11 11 0 0 0-17.057 0c-15.6 19.16-45.833 58.002-73.014 102.87-35.03 57.823-52.79 105.63-52.79 142.09 0 74.07 60.26 134.332 134.33 134.332S326 323.084 326 249.012c0-36.484-17.758-84.298-52.787-142.114zm-63.11 226.968a97.748 97.748 0 0 1-24.206 3.022c-50.18 0-91.01-37.93-91.01-84.55 0-11.255 2.97-24.405 8.83-39.083.99-2.48 3.81-3.895 6.59-3.295 2.78.598 4.64 3.018 4.357 5.65a85.066 85.066 0 0 0-.516 9.136c0 50.735 40.88 93.22 95.094 98.82 2.7.28 4.804 2.298 5.02 4.813.216 2.52-1.52 4.82-4.14 5.49z"/></svg>