<svg xmlns="http://www.w3.org/2000/svg" width="371.409" height="371.409" viewBox="0 0 371.409 371.409"><path d="M270.265 149.448c-36.107-47.124-70.38-78.948-73.44-141.372 0-1.836-.61-3.06-1.835-4.284-.612-3.06-3.672-4.896-6.732-3.06-3.672 0-6.73 2.448-6.73 6.732-77.113 83.232-207.47 294.372-43.453 354.96 74.052 27.54 157.896-9.792 172.584-90.577 7.95-43.45-14.69-89.35-40.4-122.4zm-131.58 173.808c-17.747-10.404-28.763-31.21-34.27-49.572-2.45-9.18-3.673-18.36-3.06-27.54 3.67-15.91 8.567-31.212 14.075-46.51 3.06 13.462 9.18 26.927 17.748 36.718 19.584 21.422 59.364 34.273 70.38 61.2 6.732 16.524-19.584 30.6-30.6 34.272-11.628 3.672-24.48-2.447-34.272-8.568z"/></svg>