<svg xmlns="http://www.w3.org/2000/svg" width="388.588" height="388.588" viewBox="0 0 388.588 388.588"><path d="M194.294 4.607c-12.008 23.937-21.645 38.25-40.896 63.88-38.867 51.745-107.596 107.2-107.596 171.61 0 82.01 66.482 148.49 148.492 148.49 82.01 0 148.492-66.48 148.492-148.49 0-99.055-131.002-270.356-148.492-235.49zM179.478 358.77c-5.52 0-10-4.478-10-10 0-5.52 4.48-10 10-10 63.02 0 114.292-51.27 114.292-114.29 0-5.522 4.48-10 10-10s10 4.478 10 10c0 74.045-60.244 134.29-134.292 134.29z"/></svg>