<svg xmlns="http://www.w3.org/2000/svg" viewBox="0 0 612 612"><path d="M43.41 335.593h437.204c63.387 0 114.952-51.568 114.952-114.952 0-63.29-51.417-114.8-114.677-114.95-6.24-.09-46.7.47-76.92 29.93-20.248 19.74-30.51 46.86-30.51 80.61 0 14.9 12.077 26.98 26.98 26.98 14.9 0 26.977-12.08 26.977-26.98 0-18.48 4.697-32.514 13.955-41.71 14.43-14.33 36.874-14.844 38.67-14.862.25.01.22.005.56.005 33.63 0 60.992 27.36 60.992 60.99s-27.36 60.99-60.994 60.99H43.41c-14.9 0-26.98 12.08-26.98 26.98s12.08 26.98 26.98 26.98z"/><path d="M43.41 229.908h208.394c63.383 0 114.95-51.568 114.95-114.952C366.754 51.66 315.34.15 252.077.006c-6.306-.088-46.707.474-76.915 29.927-20.242 19.74-30.506 46.86-30.506 80.605 0 14.9 12.078 26.982 26.98 26.982s26.978-12.08 26.978-26.982c0-18.482 4.697-32.516 13.955-41.71 14.42-14.328 36.87-14.848 38.67-14.865.25.008.21.004.56.004 33.63 0 60.99 27.36 60.99 60.99s-27.36 60.99-60.99 60.99H43.41c-14.9 0-26.98 12.08-26.98 26.982s12.08 26.97 26.98 26.97zm437.204 152.185H43.41c-14.9 0-26.98 12.08-26.98 26.98s12.08 26.98 26.98 26.98h437.204c33.63 0 60.993 27.36 60.993 60.99s-27.36 60.99-60.993 60.99c-.34 0-.308-.006-.56.004-1.797-.018-24.243-.536-38.67-14.864-9.258-9.193-13.955-23.227-13.955-41.71 0-14.902-12.08-26.983-26.98-26.983s-26.98 12.08-26.98 26.982c0 33.748 10.26 60.868 30.5 80.605 29 28.277 67.404 29.935 75.99 29.933.36 0 .668-.002.92-.006 63.26-.15 114.677-51.66 114.677-114.95 0-63.385-51.566-114.95-114.953-114.95z"/></svg>