<svg xmlns="http://www.w3.org/2000/svg" viewBox="0 0 445.167 445.167"><path d="M341.096 330.36l-11.788-25.336c-4.408-9.48-14.788-16.102-25.244-16.102H270.26V70.595c0-5.453-2.346-12.943-5.457-17.423l-33.55-48.314C229.11 1.77 225.95 0 222.583 0s-6.525 1.77-8.67 4.858l-33.55 48.313c-3.11 4.48-5.455 11.97-5.455 17.43v218.33h-33.804c-10.453 0-20.833 6.62-25.243 16.1l-11.79 25.34c-4.66 10.02-.31 21.91 9.7 26.57s21.91.32 26.57-9.69l8.52-18.31h41.91l8.43 40.7c-10.87 7.47-18.01 19.986-18.01 34.14 0 22.83 18.58 41.407 41.41 41.407s41.406-18.572 41.406-41.402c0-14.156-7.15-26.67-18.02-34.14l8.426-40.697h41.91l8.52 18.31c3.39 7.287 10.608 11.57 18.148 11.57 2.824 0 5.695-.6 8.425-1.87 10.014-4.66 14.355-16.555 9.694-26.57z"/></svg>