<svg xmlns="http://www.w3.org/2000/svg" width="33.299" height="33.299" viewBox="0 0 33.299 33.299"><path d="M13.243 13.008c5.625 0 11.693-2.07 11.693-4.13 0-2.058-.754-5.85-6.953-4.826-5.552.917-13.185 0-13.42 4.826-.103 2.058 3.054 4.13 8.68 4.13zm4.43-7.86c1.088-.506 5.41-.184 5.923 1.566.31 1.056-.043 2.218-1.134 2.726-1.09.507.015-1-.313-2.052-.62-1.988-5.57-1.732-4.48-2.24z"/><path d="M7.445 13.593c-.444.726-.484 1.623.04 2.745 1.04 2.214 5.415 4.427 12.09 4.427 6.68 0 12.092-1.982 12.092-4.427 0-2.143-1.21-4.93-6.003-5.585-2.05 2.443-7.938 3.728-12.42 3.728-2.21 0-4.183-.31-5.8-.88zm18.182-1.138c1.09-.507 3.684-.198 4.195 1.552.312 1.056.595 2.74-.494 3.248-1.092.507-.627-1.522-.952-2.573-.618-1.99-3.84-1.72-2.75-2.227z"/><path d="M30.066 20.202c-2.62 1.342-6.563 2.032-10.49 2.032-6.27 0-11.473-1.944-13.202-4.88C1.75 18.438 0 20.836 0 23.324c0 3.365 7.455 6.095 16.65 6.095 9.194 0 16.65-2.73 16.65-6.1 0-1.09-1.25-2.17-3.234-3.12zM13.58 26.417c-6.466 0-11.156-4.166-10.604-4.842.552-.675 2.81 1.622 7.11 2.76 7.43 1.96 16.122-.063 16 .49-.125.55-6.04 1.592-12.506 1.592z"/></svg>