<svg xmlns="http://www.w3.org/2000/svg" width="263.078" height="263.078" viewBox="0 0 263.078 263.078"><path d="M197.16 155.388c25.836-7.248 38.64-21.06 37.862-39.056-.98-22.715-17.518-49.008-55.35-55.52-.46-.08-.393-.505.094-.646 11.653-3.363 17.482-7.54 17.887-16.862.84-19.46-46.867-41.504-86.508-43.214-39.642-1.71-56.37 21.423-57.21 40.886C53.388 53.66 65.478 68.094 84.59 73.93c1.39.425 1.143 1.1.566 1.336-29.126 11.896-50.894 28.697-50.22 44.31.547 12.69 9.895 22.59 26.94 29.53.507.207.66.9.224 1.052-33.424 11.416-51.06 36.06-51.06 57.955 0 31.656 37.02 54.966 101.5 54.966 87.122 0 139.5-28.62 139.5-60.28 0-20.03-18.603-35.48-54.943-45.83-.95-.27-.904-1.32.062-1.59zm17.62-62.26c-3.87 5.152-18.987-6.337-53.466-8.29-32.145-1.82-64.265 5.607-65.818 5.74-4.482.38-3.602-1.498-1.63-2.586 74.288-40.978 123.842 1.235 120.913 5.135zM68.335 25.82c-2.34-3.12 37.932-37.348 97.94-2.5.652.38 1.402 1.182-1.41.842-1.222-.147-28.823-7.37-54.43-4.87-26.72 2.608-39.054 10.585-42.1 6.528zm125.507 159.87c-2.068-.4-39.763-10.754-83.124-7.773-38.26 2.628-72.423 19.28-78.497 11.5-6.64-8.512 51.58-53.564 155.36-9.576 5.2 2.2 13.27 7.21 6.27 5.85z"/></svg>